<?xml version="1.0" encoding="UTF-8"?>
<svg version="1.1" xmlns="http://www.w3.org/2000/svg" width="106" height="41">
<path d="M0 0 C1.65 0 3.3 0 5 0 C5.33 1.65 5.66 3.3 6 5 C6.67546875 4.9278125 7.3509375 4.855625 8.046875 4.78125 C8.93890625 4.6884375 9.8309375 4.595625 10.75 4.5 C11.63171875 4.4071875 12.5134375 4.314375 13.421875 4.21875 C18.44602041 3.79245887 23.06110887 4.12374512 28 5 C28.66 5.99 29.32 6.98 30 8 C30.33 7.01 30.66 6.02 31 5 C32.79090253 4.80533668 34.58276505 4.61948787 36.375 4.4375 C37.87160156 4.28087891 37.87160156 4.28087891 39.3984375 4.12109375 C42 4 42 4 44 5 C44.804375 4.79375 45.60875 4.5875 46.4375 4.375 C49 4 49 4 50.8125 5.1875 C52 7 52 7 52 11 C52.0825 10.21625 52.165 9.4325 52.25 8.625 C53 6 53 6 54.6875 4.6875 C57.60211689 3.82099228 59.97318329 3.74239858 63 4 C66 6 66 6 66.546875 8.56640625 C66.64742187 10.04947266 66.64742187 10.04947266 66.75 11.5625 C66.86601562 13.04943359 66.86601562 13.04943359 66.984375 14.56640625 C66.99210937 15.77103516 66.99210937 15.77103516 67 17 C66 18 66 18 63.86694336 18.11352539 C62.95050049 18.10828857 62.03405762 18.10305176 61.08984375 18.09765625 C60.10048828 18.09443359 59.11113281 18.09121094 58.09179688 18.08789062 C57.05087891 18.07951172 56.00996094 18.07113281 54.9375 18.0625 C53.89271484 18.05798828 52.84792969 18.05347656 51.77148438 18.04882812 C49.1809334 18.03699913 46.59049441 18.02051689 44 18 C44 16.35 44 14.7 44 13 C43.34 14.65 42.68 16.3 42 18 C37.52084672 18.02886338 33.04171709 18.04675187 28.5625 18.0625 C27.28310547 18.07087891 26.00371094 18.07925781 24.68554688 18.08789062 C22.86313477 18.09272461 22.86313477 18.09272461 21.00390625 18.09765625 C19.87799072 18.10289307 18.7520752 18.10812988 17.59204102 18.11352539 C15 18 15 18 14 17 C13.875 14.5 13.875 14.5 14 12 C14.33 11.67 14.66 11.34 15 11 C14.01 11 13.02 11 12 11 C11.34 13.31 10.68 15.62 10 18 C8.02 18 6.04 18 4 18 C4 16.35 4 14.7 4 13 C3.67 14.65 3.34 16.3 3 18 C1.04233719 18.08082094 -0.91626728 18.13910778 -2.875 18.1875 C-4.51082031 18.23970703 -4.51082031 18.23970703 -6.1796875 18.29296875 C-7.11039063 18.19628906 -8.04109375 18.09960938 -9 18 C-11 15 -11 15 -10.875 11.5625 C-9.91941181 7.67189095 -9.21280668 6.32036038 -6 4 C-3.25 3.25 -3.25 3.25 -1 3 C-0.67 2.01 -0.34 1.02 0 0 Z M-3 9 C-3.33 10.32 -3.66 11.64 -4 13 C-3.34 12.67 -2.68 12.34 -2 12 C-2.33 11.01 -2.66 10.02 -3 9 Z M36 10 C36 11.65 36 13.3 36 15 C36.66 13.68 37.32 12.36 38 11 C37.34 10.67 36.68 10.34 36 10 Z M28 12 C29 14 29 14 29 14 Z " fill="#8980AB" transform="translate(23,12)"/>
<path d="M0 0 C2.78305628 2.64033545 3.59523782 4.60654643 4.4375 8.3125 C3.4475 8.9725 2.4575 9.6325 1.4375 10.3125 C-0.80859375 8.40820312 -0.80859375 8.40820312 -3.0546875 6.50390625 C-7.05991429 3.33915451 -11.67964971 3.88890889 -16.5625 4.3125 C-19.73211356 5.59383314 -21.14070229 6.8325233 -23.375 9.375 C-25.13025399 13.71694408 -25.2348358 17.69480909 -24.5625 22.3125 C-22.49944173 26.43861653 -20.81786291 28.61496353 -16.5625 30.3125 C-10.35696574 31.10099198 -6.0619392 30.32409765 -0.5625 27.3125 C1.8125 27.625 1.8125 27.625 3.4375 28.3125 C1.9113207 32.19732004 0.03054004 34.18600692 -3.5625 36.3125 C-10.84111223 38.02511464 -16.76593586 37.28285025 -23.5625 34.3125 C-23.5625 33.6525 -23.5625 32.9925 -23.5625 32.3125 C-24.160625 32.085625 -24.75875 31.85875 -25.375 31.625 C-28.37824602 29.82305239 -29.16892503 28.56417492 -30.5625 25.3125 C-32.03763673 17.38061728 -31.72010812 11.9534637 -27.5625 4.9375 C-26.9025 4.07125 -26.2425 3.205 -25.5625 2.3125 C-24.9025 2.3125 -24.2425 2.3125 -23.5625 2.3125 C-23.5625 1.6525 -23.5625 0.9925 -23.5625 0.3125 C-15.51515131 -3.20448943 -8.07518482 -3.82508755 0 0 Z " fill="#2C5FED" transform="translate(33.5625,3.6875)"/>
<path d="M0 0 C1.65 0 3.3 0 5 0 C6.4783226 2.95664519 6.06032783 5.74229737 6 9 C5.34 9 4.68 9 4 9 C3.67 11.97 3.34 14.94 3 18 C1.04233719 18.08082094 -0.91626728 18.13910778 -2.875 18.1875 C-4.51082031 18.23970703 -4.51082031 18.23970703 -6.1796875 18.29296875 C-7.11039063 18.19628906 -8.04109375 18.09960938 -9 18 C-11 15 -11 15 -10.875 11.5625 C-9.91941181 7.67189095 -9.21280668 6.32036038 -6 4 C-3.25 3.25 -3.25 3.25 -1 3 C-0.67 2.01 -0.34 1.02 0 0 Z M-3 9 C-3.33 10.32 -3.66 11.64 -4 13 C-3.34 12.67 -2.68 12.34 -2 12 C-2.33 11.01 -2.66 10.02 -3 9 Z " fill="#68C2A9" transform="translate(23,12)"/>
<path d="M0 0 C3 2 3 2 3.546875 4.56640625 C3.64742187 6.04947266 3.64742187 6.04947266 3.75 7.5625 C3.82734375 8.55378906 3.9046875 9.54507812 3.984375 10.56640625 C3.98953125 11.36949219 3.9946875 12.17257813 4 13 C3 14 3 14 -0.08984375 14.1328125 C-1.35957031 14.13023438 -2.62929687 14.12765625 -3.9375 14.125 C-5.83822266 14.12886719 -5.83822266 14.12886719 -7.77734375 14.1328125 C-11 14 -11 14 -13 13 C-12.60350587 11.20376144 -12.18206548 9.41301565 -11.75 7.625 C-11.51796875 6.62726562 -11.2859375 5.62953125 -11.046875 4.6015625 C-10 2 -10 2 -8.08203125 0.6640625 C-5.26674331 -0.23387174 -2.93618284 -0.2498879 0 0 Z " fill="#AA3FAE" transform="translate(86,16)"/>
<path d="M0 0 C0.99 0 1.98 0 3 0 C3 1.98 3 3.96 3 6 C3.66 6 4.32 6 5 6 C5 4.02 5 2.04 5 0 C6.65 0 8.3 0 10 0 C11.0625 1.875 11.0625 1.875 12 4 C11.67 4.66 11.34 5.32 11 6 C11.66 6 12.32 6 13 6 C13 4.02 13 2.04 13 0 C15.31 0 17.62 0 20 0 C20 2.64 20 5.28 20 8 C13.4 8 6.8 8 0 8 C0 5.36 0 2.72 0 0 Z " fill="#6E0E26" transform="translate(41,4)"/>
<path d="M0 0 C1.32 0 2.64 0 4 0 C4 1.32 4 2.64 4 4 C5.32 4 6.64 4 8 4 C7.67 5.65 7.34 7.3 7 9 C6.360625 9.103125 5.72125 9.20625 5.0625 9.3125 C4.381875 9.539375 3.70125 9.76625 3 10 C2.67 10.99 2.34 11.98 2 13 C0.68 13 -0.64 13 -2 13 C-2 11.68 -2 10.36 -2 9 C-3.32 9 -4.64 9 -6 9 C-5.67 7.35 -5.34 5.7 -5 4 C-3.68 4 -2.36 4 -1 4 C-0.67 2.68 -0.34 1.36 0 0 Z " fill="#B720AC" transform="translate(96,17)"/>
<path d="M0 0 C1.45742463 -0.08096803 2.91612807 -0.13917774 4.375 -0.1875 C5.18710938 -0.22230469 5.99921875 -0.25710937 6.8359375 -0.29296875 C7.55007812 -0.19628906 8.26421875 -0.09960938 9 0 C11 3 11 3 10.6875 6.0625 C10 9 10 9 9 11 C6.03 11 3.06 11 0 11 C0.185625 9.9275 0.37125 8.855 0.5625 7.75 C0.94393747 4.48053594 0.89802485 3.00672022 0 0 Z " fill="#FED52C" transform="translate(74,4)"/>
<path d="M0 0 C2.97 0 5.94 0 9 0 C10.6875 2.6875 10.6875 2.6875 12 6 C11.25 8.875 11.25 8.875 9 11 C5.95744587 11.42391848 3.05137936 11.28786598 0 11 C0.29296875 9.01432292 0.5859375 7.02864583 0.87890625 5.04296875 C1.13904799 2.7974658 1.13904799 2.7974658 0 0 Z " fill="#FED62D" transform="translate(63,4)"/>
<path d="M0 0 C1.98 0 3.96 0 6 0 C6 2.31 6 4.62 6 7 C4.33388095 7.042721 2.66617115 7.04063832 1 7 C0 6 0 6 -0.0625 2.9375 C-0.041875 1.968125 -0.02125 0.99875 0 0 Z " fill="#87069C" transform="translate(54,4)"/>
<path d="M0 0 C1.65 0 3.3 0 5 0 C5 1.65 5 3.3 5 5 C4.34 4.67 3.68 4.34 3 4 C2.01 4 1.02 4 0 4 C0 2.68 0 1.36 0 0 Z " fill="#AB047E" transform="translate(46,4)"/>
</svg>
