<?xml version="1.0" encoding="UTF-8"?>
<svg version="1.1" xmlns="http://www.w3.org/2000/svg" width="512" height="512">
<path d="M0 0 C0.9355925 -0.00974854 1.871185 -0.01949707 2.83512878 -0.02954102 C23.24416486 -0.1984297 42.96079539 -0.03089418 63.0078125 4.23828125 C63.93158691 4.42551758 64.85536133 4.61275391 65.80712891 4.80566406 C101.4803425 12.13655694 136.04867954 27.05718327 165.0078125 49.23828125 C165.5857959 49.67495117 166.1637793 50.11162109 166.75927734 50.56152344 C175.26586251 57.002323 183.31244993 63.84319145 191.0078125 71.23828125 C191.60239258 71.80562988 192.19697266 72.37297852 192.80957031 72.95751953 C201.15799553 80.96365501 208.80764092 89.18319073 215.69726562 98.47900391 C217.02578341 100.26240538 218.38141287 102.02237641 219.7421875 103.78125 C227.10148221 113.40694237 233.21551204 123.60687263 239.0078125 134.23828125 C239.3697168 134.89876465 239.73162109 135.55924805 240.10449219 136.23974609 C257.60985188 168.57859478 268.92626162 206.31643928 269.24609375 243.23046875 C269.25584229 244.16606125 269.26559082 245.10165375 269.27563477 246.06559753 C269.44452345 266.47463361 269.27698793 286.19126414 265.0078125 306.23828125 C264.82057617 307.16205566 264.63333984 308.08583008 264.44042969 309.03759766 C257.10953681 344.71081125 242.18891048 379.27914829 220.0078125 408.23828125 C219.57114258 408.81626465 219.13447266 409.39424805 218.68457031 409.98974609 C212.24377075 418.49633126 205.4029023 426.54291868 198.0078125 434.23828125 C197.44046387 434.83286133 196.87311523 435.42744141 196.28857422 436.04003906 C188.28243874 444.38846428 180.06290302 452.03810967 170.76708984 458.92773438 C168.98368837 460.25625216 167.22371734 461.61188162 165.46484375 462.97265625 C155.83915138 470.33195096 145.63922112 476.44598079 135.0078125 482.23828125 C134.3473291 482.60018555 133.6868457 482.96208984 133.00634766 483.33496094 C100.66749897 500.84032063 62.92965447 512.15673037 26.015625 512.4765625 C25.0800325 512.48631104 24.14444 512.49605957 23.18049622 512.50610352 C2.77146014 512.6749922 -16.94517039 512.50745668 -36.9921875 508.23828125 C-37.91596191 508.05104492 -38.83973633 507.86380859 -39.79150391 507.67089844 C-75.4647175 500.34000556 -110.03305454 485.41937923 -138.9921875 463.23828125 C-139.5701709 462.80161133 -140.1481543 462.36494141 -140.74365234 461.91503906 C-149.25023751 455.4742395 -157.29682493 448.63337105 -164.9921875 441.23828125 C-165.58676758 440.67093262 -166.18134766 440.10358398 -166.79394531 439.51904297 C-175.14237053 431.51290749 -182.79201592 423.29337177 -189.68164062 413.99755859 C-191.01015841 412.21415712 -192.36578787 410.45418609 -193.7265625 408.6953125 C-201.08585721 399.06962013 -207.19988704 388.86968987 -212.9921875 378.23828125 C-213.3540918 377.57779785 -213.71599609 376.91731445 -214.08886719 376.23681641 C-231.59422688 343.89796772 -242.91063662 306.16012322 -243.23046875 269.24609375 C-243.24021729 268.31050125 -243.24996582 267.37490875 -243.26000977 266.41096497 C-243.42889845 246.00192889 -243.26136293 226.28529836 -238.9921875 206.23828125 C-238.80495117 205.31450684 -238.61771484 204.39073242 -238.42480469 203.43896484 C-231.09391181 167.76575125 -216.17328548 133.19741421 -193.9921875 104.23828125 C-193.55551758 103.66029785 -193.11884766 103.08231445 -192.66894531 102.48681641 C-186.22814575 93.98023124 -179.3872773 85.93364382 -171.9921875 78.23828125 C-171.42483887 77.64370117 -170.85749023 77.04912109 -170.27294922 76.43652344 C-162.26681374 68.08809822 -154.04727802 60.43845283 -144.75146484 53.54882812 C-142.96806337 52.22031034 -141.20809234 50.86468088 -139.44921875 49.50390625 C-129.82352638 42.14461154 -119.62359612 36.03058171 -108.9921875 30.23828125 C-108.3317041 29.87637695 -107.6712207 29.51447266 -106.99072266 29.14160156 C-74.65187397 11.63624187 -36.91402947 0.31983213 0 0 Z " fill="#000000" transform="translate(242.9921875,-0.23828125)"/>
<path d="M0 0 C0.98355469 0.30808594 1.96710938 0.61617187 2.98046875 0.93359375 C4.99861006 1.58753411 7.00214556 2.28648056 9 3 C9 3.66 9 4.32 9 5 C9.969375 5.28875 10.93875 5.5775 11.9375 5.875 C15 7 15 7 16 9 C14.68 10.65 13.36 12.3 12 14 C11.01 13.67 10.02 13.34 9 13 C8.34 13.66 7.68 14.32 7 15 C4.67724823 15.40047444 2.34260643 15.7397104 0 16 C0.33 15.34 0.66 14.68 1 14 C0.401875 14.33 -0.19625 14.66 -0.8125 15 C-3 16 -3 16 -6 16 C-5.34 14.68 -4.68 13.36 -4 12 C-4.86625 12.680625 -5.7325 13.36125 -6.625 14.0625 C-10.67317699 16.38645346 -11.58013207 15.88289028 -16 15 C-39.8384077 13.43088962 -58.89129916 20.98798102 -77.11328125 35.70703125 C-89.33352408 46.80357359 -96.51415725 63.95150309 -97.328125 80.171875 C-98.00832324 103.69230582 -91.26935141 122.51217149 -75.125 139.91015625 C-66.25640402 148.63202914 -55.55554064 152.12948073 -44 156 C-42.81921875 156.39574219 -41.6384375 156.79148437 -40.421875 157.19921875 C-39.62265625 157.46347656 -38.8234375 157.72773438 -38 158 C-38 158.66 -38 159.32 -38 160 C-36.515 159.91298828 -36.515 159.91298828 -35 159.82421875 C-27.21085404 159.50780318 -21.08584022 159.50833945 -15 165 C-14.67 165.33 -14.34 165.66 -14 166 C-13.34 165.34 -12.68 164.68 -12 164 C-11.67 164.99 -11.34 165.98 -11 167 C-9.00428677 167.67939174 -7.00405227 168.34561559 -5 169 C-3 172 -3 172 -2 174 C-4.64 174.33 -7.28 174.66 -10 175 C-10 175.66 -10 176.32 -10 177 C-15.54979613 178.16007444 -20.98180498 178.19132525 -26.625 178.1875 C-28.08800537 178.1884668 -28.08800537 178.1884668 -29.58056641 178.18945312 C-36.57801243 178.13823243 -43.16998522 177.61384315 -50 176 C-50 175.34 -50 174.68 -50 174 C-50.85658203 173.88785156 -50.85658203 173.88785156 -51.73046875 173.7734375 C-60.20299558 172.39951423 -67.38003432 168.80998284 -75 165 C-75 164.34 -75 163.68 -75 163 C-76.07894531 162.62294922 -76.07894531 162.62294922 -77.1796875 162.23828125 C-91.91935328 155.76671054 -103.31933193 138.98634667 -110 125 C-110.33580078 124.32775391 -110.67160156 123.65550781 -111.01757812 122.96289062 C-116.52435079 111.54182322 -117.64442725 100.44674334 -117.625 87.9375 C-117.62612793 87.2293515 -117.62725586 86.521203 -117.62841797 85.79159546 C-117.59823753 77.11635387 -116.70147657 69.26919576 -114 61 C-113.53507142 59.27259495 -113.07591915 57.54361488 -112.625 55.8125 C-111.40789292 51.76401749 -109.71053455 48.53130386 -107.28125 45.08203125 C-105.83736911 42.86735925 -105.83736911 42.86735925 -104.66015625 39.66015625 C-103.04933195 35.80022748 -100.67835288 32.75329828 -97.9375 29.625 C-97.20623901 28.78146973 -97.20623901 28.78146973 -96.46020508 27.92089844 C-84.53623348 14.39173967 -68.63139493 1.38010333 -50 0 C-50 -0.66 -50 -1.32 -50 -2 C-33.38221996 -5.92656406 -16.18945869 -5.2097566 0 0 Z " fill="#2B5CDC" transform="translate(136,169)"/>
<path d="M0 0 C2.6362236 1.80034783 5.13354509 3.67824434 7.5625 5.75 C8.59375 5.151875 9.625 4.55375 10.6875 3.9375 C11.33589844 3.57527344 11.98429687 3.21304688 12.65234375 2.83984375 C14.21692779 1.94716697 15.74048768 0.98293825 17.25 0 C23.36785562 -2.30862476 29.92492051 -2.19199267 36.0625 0 C39.73027697 2.56744388 42.12756505 4.44519514 43.5625 8.75 C44.23504769 17.50309041 42.99400162 26.02484487 41.53613281 34.62524414 C41.18413885 36.70738207 40.84890725 38.79174639 40.515625 40.87695312 C39.60030656 46.45046259 38.6768235 51.46419124 36.5625 56.75 C28.9725 56.75 21.3825 56.75 13.5625 56.75 C13.9234375 54.94015625 14.284375 53.1303125 14.65625 51.265625 C15.12558371 48.84386305 15.59430085 46.42198155 16.0625 44 C16.30097656 42.81277344 16.53945313 41.62554687 16.78515625 40.40234375 C18.24814006 32.7530284 18.88460952 25.53431328 18.5625 17.75 C13.65273156 17.27294431 13.65273156 17.27294431 9.3984375 19.37109375 C7.11603568 22.32850377 6.84539569 24.36974218 6.4375 28.0625 C5.83509442 32.8236178 4.88124956 37.13437653 3.5625 41.75 C3.00117548 45.14662792 2.50212007 48.54727407 2.02734375 51.95703125 C1.5625 54.75 1.5625 54.75 0.5625 56.75 C-7.0275 56.75 -14.6175 56.75 -22.4375 56.75 C-21.51050644 49.19143715 -20.53529445 41.85939648 -18.8125 34.4375 C-17.52965065 28.77104485 -17.07713806 23.54248453 -17.4375 17.75 C-18.695625 17.6675 -19.95375 17.585 -21.25 17.5 C-21.95769531 17.45359375 -22.66539062 17.4071875 -23.39453125 17.359375 C-25.56010971 17.58407711 -25.56010971 17.58407711 -27.10546875 19.3203125 C-28.83521521 22.47545121 -29.3353047 25.32634915 -29.9375 28.875 C-30.05786621 29.56279541 -30.17823242 30.25059082 -30.30224609 30.95922852 C-30.69425464 33.22075779 -31.0681666 35.48466117 -31.4375 37.75 C-31.63907715 38.98290771 -31.63907715 38.98290771 -31.84472656 40.24072266 C-31.98104492 41.07522949 -32.11736328 41.90973633 -32.2578125 42.76953125 C-32.39251953 43.5898584 -32.52722656 44.41018555 -32.66601562 45.25537109 C-32.92765639 46.86033743 -33.18427573 48.46613147 -33.43554688 50.07275391 C-34.32842794 55.64092794 -34.32842794 55.64092794 -35.4375 56.75 C-37.14522358 56.83713831 -38.85648649 56.85700007 -40.56640625 56.84765625 C-42.11811523 56.84282227 -42.11811523 56.84282227 -43.70117188 56.83789062 C-44.78978516 56.82951172 -45.87839844 56.82113281 -47 56.8125 C-48.6387207 56.80573242 -48.6387207 56.80573242 -50.31054688 56.79882812 C-53.01958495 56.78699826 -55.72851599 56.77051543 -58.4375 56.75 C-57.54806751 45.38111546 -57.54806751 45.38111546 -56.125 40.0625 C-54.28894345 32.58326965 -53.09474323 25.01761338 -51.88354492 17.4152832 C-51.72474854 16.4274585 -51.56595215 15.43963379 -51.40234375 14.421875 C-51.2643335 13.5462793 -51.12632324 12.67068359 -50.98413086 11.76855469 C-50.25441084 7.73896188 -49.32585895 3.74761527 -48.4375 -0.25 C-42.1675 -0.25 -35.8975 -0.25 -29.4375 -0.25 C-29.1075 1.73 -28.7775 3.71 -28.4375 5.75 C-27.40689453 5.11771484 -27.40689453 5.11771484 -26.35546875 4.47265625 C-25.45441406 3.92480469 -24.55335938 3.37695312 -23.625 2.8125 C-22.73167969 2.26722656 -21.83835937 1.72195312 -20.91796875 1.16015625 C-14.64455208 -2.40630582 -6.70490088 -2.43814578 0 0 Z " fill="#9366A9" transform="translate(311.4375,238.25)"/>
<path d="M0 0 C7.59 0 15.18 0 23 0 C23 5.1067311 22.83284916 7.97688431 21.5625 12.6171875 C20.89110966 15.46127159 20.50855669 18.29027713 20.125 21.1875 C19.17757112 28.16266535 17.88239755 35.04289118 16.53613281 41.95092773 C15.25205824 48.57515045 14.09170317 55.21105368 13.03930664 61.87597656 C12.2182013 66.99185967 11.12993176 71.91530706 10 77 C3.4 77 -3.2 77 -10 77 C-10.33 75.68 -10.66 74.36 -11 73 C-11.67546875 73.34933594 -12.3509375 73.69867188 -13.046875 74.05859375 C-13.93890625 74.51363281 -14.8309375 74.96867187 -15.75 75.4375 C-16.63171875 75.88996094 -17.5134375 76.34242188 -18.421875 76.80859375 C-24.5121534 79.62304059 -30.80437551 79.92628764 -37.1875 77.875 C-42.11182842 75.8240027 -44.66238905 72.58135447 -47.11328125 67.8515625 C-48.32675091 63.94921513 -48.34142904 60.31473935 -48.3125 56.25 C-48.30758545 55.44377197 -48.3026709 54.63754395 -48.29760742 53.80688477 C-48.18410662 48.05559556 -47.59972229 43.19944458 -45 38 C-44.64808594 37.23429687 -44.29617187 36.46859375 -43.93359375 35.6796875 C-41.20125615 30.2150123 -38.02401652 26.46520217 -33 23 C-32.41605469 22.58621094 -31.83210938 22.17242187 -31.23046875 21.74609375 C-25.33192854 18.18213367 -18.70276734 17.93507435 -12 19 C-9.23658874 20.16951512 -6.61303332 21.52744335 -4 23 C-3.91435791 22.37432129 -3.82871582 21.74864258 -3.74047852 21.10400391 C-3.35146482 18.27715353 -2.9570505 15.45108268 -2.5625 12.625 C-2.42779297 11.64015625 -2.29308594 10.6553125 -2.15429688 9.640625 C-2.02216797 8.69960937 -1.89003906 7.75859375 -1.75390625 6.7890625 C-1.57323608 5.48509521 -1.57323608 5.48509521 -1.38891602 4.15478516 C-1 2 -1 2 0 0 Z " fill="#66BDA6" transform="translate(115,218)"/>
<path d="M0 0 C2.69153106 2.07524591 3.96110829 3.46926238 5.046875 6.7265625 C4.92498077 14.63093449 4.14831089 22.10885741 2.046875 29.7265625 C1.62204437 32.71925824 1.31171091 35.71579638 1.046875 38.7265625 C3.026875 38.7265625 5.006875 38.7265625 7.046875 38.7265625 C6.93199752 40.31066244 6.80452992 41.89385213 6.671875 43.4765625 C6.56746094 44.79914063 6.56746094 44.79914063 6.4609375 46.1484375 C6.04119539 48.76192613 5.46689422 50.50219672 4.046875 52.7265625 C-1.55030517 55.52515259 -8.29345581 55.66883613 -14.3046875 54.12109375 C-17.35221808 53.02952371 -19.64760967 52.03207783 -21.953125 49.7265625 C-25.27996988 50.18720256 -28.37952951 51.62398841 -31.515625 52.7890625 C-38.93670732 55.26576963 -45.85590934 55.96242761 -53.390625 53.5390625 C-57.71662512 51.33811507 -59.80757557 49.01766136 -61.953125 44.7265625 C-62.22088029 37.91626486 -61.11374411 32.25757548 -57.03125 26.73828125 C-48.84106664 18.80981428 -38.92683213 17.55949823 -28.140625 17.6640625 C-27.25697266 17.66857422 -26.37332031 17.67308594 -25.46289062 17.67773438 C-23.29293941 17.68946384 -21.12302328 17.70739755 -18.953125 17.7265625 C-19.613125 15.7465625 -20.273125 13.7665625 -20.953125 11.7265625 C-25.66711198 10.75126406 -25.66711198 10.75126406 -30.328125 11.4765625 C-32.262822 12.72375072 -32.262822 12.72375072 -32.953125 15.7265625 C-40.543125 15.7265625 -48.133125 15.7265625 -55.953125 15.7265625 C-54.7923692 8.76202771 -52.58013555 4.24256314 -46.8671875 -0.10546875 C-33.72811081 -8.12298697 -12.97956352 -8.46267541 0 0 Z " fill="#A63FAA" transform="translate(419.953125,242.2734375)"/>
<path d="M0 0 C2.8712108 2.80740612 3.90324988 4.34712717 4.49609375 8.34765625 C4.46708984 10.18650391 4.46708984 10.18650391 4.4375 12.0625 C4.4271875 12.71790771 4.416875 13.37331543 4.40625 14.04858398 C4.23056492 19.3766216 3.21224055 24.237826 1.65625 29.31640625 C0.92846075 32.29254442 0.8924253 34.94756797 1 38 C2.65 38.33 4.3 38.66 6 39 C6.33318527 44.44202612 5.78790291 48.26056505 3 53 C-1.82233581 55.70521277 -7.59592016 55.57199581 -13 55 C-16.5654001 53.98598713 -19.34543142 52.65456858 -22 50 C-25.76089689 50.40710739 -29.10190171 51.73777706 -32.625 53.0625 C-40.0214912 55.552228 -46.92307913 56.22933777 -54.4375 53.8125 C-60.0658083 50.94897473 -60.0658083 50.94897473 -62 47 C-63.04317624 40.10510181 -62.68739121 34.38385642 -58.4921875 28.68359375 C-51.75924292 21.08699921 -43.25681441 18.24967969 -33.28125 17.5859375 C-31.68787553 17.50757482 -30.09408295 17.43730943 -28.5 17.375 C-27.67757812 17.33632813 -26.85515625 17.29765625 -26.0078125 17.2578125 C-24.0055299 17.16468308 -22.00279738 17.08131015 -20 17 C-20.34444881 14.52733235 -20.34444881 14.52733235 -21 12 C-24.79359325 10.10320337 -29.04395608 10.78275572 -33 12 C-33.33 13.32 -33.66 14.64 -34 16 C-41.26 16 -48.52 16 -56 16 C-55.05497408 9.38481857 -54.51464732 5.66172036 -49.1328125 1.5859375 C-35.81453204 -7.00812272 -13.60679689 -9.30870395 0 0 Z " fill="#7F8BA6" transform="translate(244,242)"/>
<path d="M0 0 C0.66 0.33 1.32 0.66 2 1 C2.24613739 7.52264091 1.53020433 13.64462582 0 20 C-1.87309243 21.87309243 -5.24423959 21.17721858 -7.75 21.25 C-13.23038382 21.63029774 -13.23038382 21.63029774 -18.1875 23.8125 C-23.83453471 33.74349207 -24.33442971 46.8961981 -26 58 C-33.59 58 -41.18 58 -49 58 C-49 53.08458095 -48.84010211 49.16039983 -48.046875 44.421875 C-47.8415918 43.18655029 -47.63630859 41.95122559 -47.42480469 40.6784668 C-47.20211914 39.38207275 -46.97943359 38.08567871 -46.75 36.75 C-46.63773071 36.08747223 -46.52546143 35.42494446 -46.40979004 34.74234009 C-44.98994946 26.36439487 -43.48863861 18.00601481 -41.75 9.6875 C-41.58725586 8.90665039 -41.42451172 8.12580078 -41.25683594 7.32128906 C-40.13206659 2.13206659 -40.13206659 2.13206659 -39 1 C-37.58429877 0.91348389 -36.164405 0.89295096 -34.74609375 0.90234375 C-33.46508789 0.90717773 -33.46508789 0.90717773 -32.15820312 0.91210938 C-30.81145508 0.92467773 -30.81145508 0.92467773 -29.4375 0.9375 C-28.53580078 0.94201172 -27.63410156 0.94652344 -26.70507812 0.95117188 C-24.46998686 0.96299775 -22.23502563 0.9794778 -20 1 C-20 2.65 -20 4.3 -20 6 C-19.34 6 -18.68 6 -18 6 C-18 5.34 -18 4.68 -18 4 C-11.84651037 0.35348762 -7.15348642 -0.81108303 0 0 Z " fill="#72A5A6" transform="translate(185,237)"/>
<path d="M0 0 C1.39456452 0.00667256 2.78911118 0.01863093 4.18359375 0.03515625 C5.2499707 0.04192383 5.2499707 0.04192383 6.33789062 0.04882812 C8.09899388 0.06064761 9.86005411 0.07858362 11.62109375 0.09765625 C11.03565592 7.19994147 9.96694552 14.09922707 8.62109375 21.09765625 C15.22109375 21.09765625 21.82109375 21.09765625 28.62109375 21.09765625 C27.74609375 32.59765625 27.74609375 32.59765625 26.62109375 37.09765625 C19.36109375 37.09765625 12.10109375 37.09765625 4.62109375 37.09765625 C4.62109375 40.06765625 4.62109375 43.03765625 4.62109375 46.09765625 C3.86609085 49.87716481 2.74435173 53.4002654 1.62109375 57.09765625 C-3.65890625 57.09765625 -8.93890625 57.09765625 -14.37890625 57.09765625 C-13.42530786 50.42246749 -12.40936211 43.7612708 -11.37890625 37.09765625 C-17.97890625 37.09765625 -24.57890625 37.09765625 -31.37890625 37.09765625 C-30.37890625 28.09765625 -30.37890625 28.09765625 -28.37890625 21.09765625 C-21.44890625 21.09765625 -14.51890625 21.09765625 -7.37890625 21.09765625 C-7.04890625 17.79765625 -6.71890625 14.49765625 -6.37890625 11.09765625 C-6.0816317 9.23736784 -5.75804615 7.38050122 -5.37890625 5.53515625 C-5.21390625 4.70886719 -5.04890625 3.88257813 -4.87890625 3.03125 C-4.0193213 -0.29292619 -3.66813502 0.10601546 0 0 Z " fill="#B520AA" transform="translate(465.37890625,237.90234375)"/>
<path d="M0 0 C5.4139985 -1.37608691 10.7605236 -2.43498692 16 0 C21.63113147 5.66573544 26.8729005 14.27523188 29 22 C28.26000977 24.54101562 28.26000977 24.54101562 27 27 C26.67040283 27.7628833 26.34080566 28.5257666 26.0012207 29.31176758 C18.89897588 44.71743144 18.89897588 44.71743144 14.015625 46.87792969 C9.56163689 47.65863343 5.39329154 47.01383651 1 46 C1.53179433 40.06933718 5.27988541 35.71145138 8.58203125 30.97070312 C10.65936085 27.83089979 11.96776464 25.82307615 12.1171875 22.0078125 C10.59194889 17.90140085 8.41484843 14.45154242 6 10.8125 C5.08064304 9.40409622 4.16386452 7.99400507 3.25 6.58203125 C2.84265625 5.96561768 2.4353125 5.3492041 2.015625 4.71411133 C1 3 1 3 0 0 Z " fill="#F6CF2C" transform="translate(327,178)"/>
<path d="M0 0 C5.14571571 -1.3451456 10.05858961 -2.29715041 15 0 C20.56970514 5.50858914 25.49423811 13.572102 28 21 C27.23322854 29.5998681 20.98830087 39.97889936 15 46 C10.08990711 48.23132519 5.1057359 47.25550883 0 46 C0.67583038 42.23337203 2.3695698 39.39511378 4.3125 36.125 C4.93640625 35.06410156 5.5603125 34.00320312 6.203125 32.91015625 C7.57570951 30.68716612 8.98320982 28.63396624 10.5625 26.5625 C12.31140433 24.14788652 12.31140433 24.14788652 11.41015625 21.84765625 C9.12753486 17.23815211 6.26956719 13.00718951 3.45703125 8.70703125 C3.01488281 8.01738281 2.57273437 7.32773438 2.1171875 6.6171875 C1.71097168 5.99440918 1.30475586 5.37163086 0.88623047 4.72998047 C0 3 0 3 0 0 Z " fill="#F6CF2C" transform="translate(357,178)"/>
<path d="M0 0 C5.10293856 -1.25482096 10.09476211 -2.23970574 15 0 C20.67226688 5.75215797 26.91568579 15.84009374 28 24 C26.69769713 26.57814812 25.37005162 28.89841461 23.8125 31.3125 C23.00581215 32.59982312 22.19981902 33.88758185 21.39453125 35.17578125 C20.9970166 35.80436035 20.59950195 36.43293945 20.18994141 37.08056641 C18.37551085 40.00733149 16.68868037 42.99919558 15 46 C10.05 46 5.1 46 0 46 C0.85376922 42.5849231 1.49665839 40.93672557 3.3203125 38.1015625 C3.77277344 37.37453125 4.22523438 36.6475 4.69140625 35.8984375 C5.64585059 34.38485001 6.60940315 32.87696726 7.58203125 31.375 C9.60206561 28.09895574 10.96541355 25.86466119 11.12109375 21.97265625 C9.57674477 17.87771 7.36630338 14.43733035 4.9375 10.8125 C4.00304634 9.40635759 3.07437758 7.99634866 2.15234375 6.58203125 C1.73976318 5.96561768 1.32718262 5.3492041 0.90209961 4.71411133 C0 3 0 3 0 0 Z " fill="#F5CF2C" transform="translate(378,178)"/>
<path d="M0 0 C5.16039031 -1.41321892 10.06208712 -2.40225897 15 0 C20.56518306 5.73076543 25.82873039 14.28664297 28 22 C27.26220703 24.54101562 27.26220703 24.54101562 26 27 C25.67040283 27.7628833 25.34080566 28.5257666 25.0012207 29.31176758 C17.89897588 44.71743144 17.89897588 44.71743144 13.015625 46.87792969 C8.56163689 47.65863343 4.39329154 47.01383651 0 46 C0.53179433 40.06933718 4.27988541 35.71145138 7.58203125 30.97070312 C9.65861845 27.8320219 10.96676582 25.82120576 11.12109375 22.0078125 C9.58682442 17.89148014 7.37513347 14.45050869 4.9375 10.8125 C4.00304634 9.40635759 3.07437758 7.99634866 2.15234375 6.58203125 C1.73976318 5.96561768 1.32718262 5.3492041 0.90209961 4.71411133 C0 3 0 3 0 0 Z " fill="#F5CF2C" transform="translate(307,178)"/>
<path d="M0 0 C2.0625 0.4375 2.0625 0.4375 4 1 C4 1.66 4 2.32 4 3 C5.98 3.66 7.96 4.32 10 5 C10 5.66 10 6.32 10 7 C10.639375 7.226875 11.27875 7.45375 11.9375 7.6875 C14 9 14 9 14.62890625 11.58203125 C14.75136719 12.37996094 14.87382812 13.17789062 15 14 C13.21118264 15.00508801 11.41885304 16.00392736 9.625 17 C8.62726563 17.556875 7.62953125 18.11375 6.6015625 18.6875 C4 20 4 20 2 20 C1.505 21.485 1.505 21.485 1 23 C-5.46490554 26.09281081 -11.88072026 27.5476369 -19 27 C-15.91190305 25.23537317 -14.76687864 25 -11 25 C-11.99 24.34 -12.98 23.68 -14 23 C-14 22.01 -14 21.02 -14 20 C-14.969375 19.71125 -15.93875 19.4225 -16.9375 19.125 C-20 18 -20 18 -21 16 C-21.66 16.66 -22.32 17.32 -23 18 C-23.7425 17.38125 -24.485 16.7625 -25.25 16.125 C-30.05642223 12.41094646 -33.718919 11.64862182 -39.75 11.375 C-40.44738281 11.33632813 -41.14476563 11.29765625 -41.86328125 11.2578125 C-43.57510818 11.16401376 -45.28751682 11.08093826 -47 11 C-47 10.34 -47 9.68 -47 9 C-48.65 9 -50.3 9 -52 9 C-52 8.67 -52 8.34 -52 8 C-50.65421875 8.02356567 -50.65421875 8.02356567 -49.28125 8.04760742 C-45.91904804 8.09905641 -42.5572708 8.1365042 -39.19482422 8.16479492 C-37.74586339 8.17978417 -36.29694717 8.20018271 -34.84814453 8.22631836 C-26.99768031 8.3642831 -20.23516749 8.44729565 -13 5 C-9.82103879 3.93175116 -6.63276056 2.89768739 -3.44140625 1.8671875 C-1.08322698 1.22644161 -1.08322698 1.22644161 0 0 Z " fill="#162F71" transform="translate(145,318)"/>
<path d="M0 0 C2.68125 -0.103125 5.3625 -0.20625 8.125 -0.3125 C9.37434326 -0.38078003 9.37434326 -0.38078003 10.64892578 -0.45043945 C14.7304288 -0.52591463 17.26619283 -0.23080751 20.4921875 2.39453125 C23.91360802 5.94918465 24.34824203 7.94169731 24.28515625 12.8984375 C23.81849096 16.33769673 22.21874413 18.41146518 20 21 C16.25701434 23.66327826 12.14537154 23.22517688 7.75 23.125 C5.1925 23.08375 2.635 23.0425 0 23 C0 15.41 0 7.82 0 0 Z " fill="#A20598" transform="translate(226,179)"/>
<path d="M0 0 C7 0 7 0 9.6171875 2.5546875 C10.39337624 3.64504787 11.14566969 4.75275582 11.875 5.875 C12.26429688 6.43058594 12.65359375 6.98617187 13.0546875 7.55859375 C14.50490347 9.64831468 15.86156421 11.72312841 17 14 C17.33 9.38 17.66 4.76 18 0 C19.65 0 21.3 0 23 0 C23 7.59 23 15.18 23 23 C16 23 16 23 13.34765625 20.375 C12.562352 19.26633518 11.80094319 18.14041313 11.0625 17 C10.66482422 16.42765625 10.26714844 15.8553125 9.85742188 15.265625 C8.88387842 13.8580923 7.93897788 12.43082343 7 11 C6.67 14.96 6.34 18.92 6 23 C4.02 23 2.04 23 0 23 C0 15.41 0 7.82 0 0 Z " fill="#8E05B6" transform="translate(265,179)"/>
<path d="M0 0 C1.98828125 0.40625 1.98828125 0.40625 3.98828125 2.40625 C4.87370174 9.09838158 4.42354284 14.94910826 1.15625 20.8828125 C-0.52855 23.08037772 -2.2321859 24.28739054 -4.984375 24.70703125 C-6.99595804 24.71831115 -9.00640971 24.56540151 -11.01171875 24.40625 C-14.5374061 19.11771897 -12.99447364 12.45897877 -12.01171875 6.40625 C-9.81762139 0.56188304 -5.763984 -0.23249683 0 0 Z " fill="#020403" transform="translate(103.01171875,254.59375)"/>
<path d="M0 0 C3.7602985 0.58107632 6.53035032 1.65199496 9.8125 3.5625 C10.60269531 4.01753906 11.39289063 4.47257813 12.20703125 4.94140625 C12.79871094 5.29074219 13.39039063 5.64007813 14 6 C14 6.66 14 7.32 14 8 C16.475 8.99 16.475 8.99 19 10 C18.278125 10.70125 17.55625 11.4025 16.8125 12.125 C14.88665978 14.04538458 13.10250503 16.02468994 11.375 18.125 C9.64912868 20.21421265 7.96092626 22.14228039 6 24 C2.40314996 22.86415262 -1.08079242 21.56766513 -4.5625 20.125 C-15.02431158 15.94340765 -24.69291243 13.37011743 -36 13 C-36 12.67 -36 12.34 -36 12 C-22.11572334 11.82668725 -22.11572334 11.82668725 -17.9375 12.75 C-14.82579372 13.32027048 -14.82579372 13.32027048 -12.0625 11.0625 C-11.0415625 10.0415625 -11.0415625 10.0415625 -10 9 C-9.34 9.33 -8.68 9.66 -8 10 C-8.99 11.32 -9.98 12.64 -11 14 C-10.401875 13.484375 -9.80375 12.96875 -9.1875 12.4375 C-8.465625 11.963125 -7.74375 11.48875 -7 11 C-4 12 -4 12 -3 13 C-2.236875 12.67 -1.47375 12.34 -0.6875 12 C2 11 2 11 5 11 C5.33 10.67 5.66 10.34 6 10 C6.99 9.67 7.98 9.34 9 9 C9 8.01 9 7.02 9 6 C7.02 5.01 5.04 4.02 3 3 C3 2.34 3 1.68 3 1 C2.01 0.67 1.02 0.34 0 0 Z " fill="#152D6D" transform="translate(142,171)"/>
<path d="M0 0 C9.06335876 -0.10234659 17.98175113 -0.06996173 27 1 C27.33 1.99 27.66 2.98 28 4 C28.99 4 29.98 4 31 4 C31 4.66 31 5.32 31 6 C31.556875 6.04898437 32.11375 6.09796875 32.6875 6.1484375 C37.96567265 6.66555577 42.88362365 7.60462463 48 9 C47 12 47 12 45.328125 12.984375 C41.19354438 14.50764155 38.35373516 15.49659646 34 14 C33.95875 13.38125 33.9175 12.7625 33.875 12.125 C33.58625 11.42375 33.2975 10.7225 33 10 C30.02496878 8.84164327 30.02496878 8.84164327 27 8 C26.67 7.34 26.34 6.68 26 6 C25.34 6.66 24.68 7.32 24 8 C23.2575 7.38125 22.515 6.7625 21.75 6.125 C16.94357777 2.41094646 13.281081 1.64862182 7.25 1.375 C6.55261719 1.33632813 5.85523437 1.29765625 5.13671875 1.2578125 C3.42489182 1.16401376 1.71248318 1.08093826 0 1 C0 0.67 0 0.34 0 0 Z " fill="#1C3D93" transform="translate(98,328)"/>
<path d="M0 0 C0.7734375 0.3403125 0.7734375 0.3403125 1.5625 0.6875 C1.5625 1.3475 1.5625 2.0075 1.5625 2.6875 C3.5425 3.3475 5.5225 4.0075 7.5625 4.6875 C7.5625 5.3475 7.5625 6.0075 7.5625 6.6875 C8.201875 6.914375 8.84125 7.14125 9.5 7.375 C11.5625 8.6875 11.5625 8.6875 12.3125 11.3125 C12.395 12.09625 12.4775 12.88 12.5625 13.6875 C11.9025 14.0175 11.2425 14.3475 10.5625 14.6875 C10.02625 13.883125 9.49 13.07875 8.9375 12.25 C4.47359826 7.78609826 -2.55615424 8.859608 -8.4375 8.6875 C-11.06502127 8.52642346 -13.68742938 8.32487847 -16.3125 8.125 C-18.35416667 7.97916667 -20.39583333 7.83333333 -22.4375 7.6875 C-22.4375 7.3575 -22.4375 7.0275 -22.4375 6.6875 C-21.58027344 6.43355469 -20.72304687 6.17960937 -19.83984375 5.91796875 C-12.4737447 3.75792697 -12.4737447 3.75792697 -5.375 0.875 C-2.4375 -0.3125 -2.4375 -0.3125 0 0 Z " fill="#0D1C43" transform="translate(147.4375,318.3125)"/>
<path d="M0 0 C7 0 7 0 9.4375 1.5625 C11.58879747 4.91852406 11.48947291 7.08421671 11 11 C10 13.4375 10 13.4375 8 15 C5.24513897 15.33145271 2.79328696 15.18316636 0 15 C0 10.05 0 5.1 0 0 Z " fill="#020001" transform="translate(232,183)"/>
<path d="M0 0 C1.98 0 3.96 0 6 0 C6 7.59 6 15.18 6 23 C4.02 23 2.04 23 0 23 C0 15.41 0 7.82 0 0 Z " fill="#D20635" transform="translate(202,179)"/>
<path d="M0 0 C1.65 0.66 3.3 1.32 5 2 C3.9171875 3.051875 3.9171875 3.051875 2.8125 4.125 C0.88665978 6.04538458 -0.89749497 8.02468994 -2.625 10.125 C-4.35087132 12.21421265 -6.03907374 14.14228039 -8 16 C-13.44876003 14.27933894 -18.71169451 12.15294651 -24 10 C-21.31105516 9.23006352 -19.67557463 9.02544513 -16.8125 9.25 C-10.62260427 8.8441052 -5.98334122 5.78984452 -1.4375 1.6875 C-0.963125 1.130625 -0.48875 0.57375 0 0 Z " fill="#132A64" transform="translate(156,179)"/>
<path d="M0 0 C1.21236328 0.01353516 1.21236328 0.01353516 2.44921875 0.02734375 C3.37154297 0.04474609 3.37154297 0.04474609 4.3125 0.0625 C4.625 2.3125 4.625 2.3125 4.3125 5.0625 C2.4375 7.375 2.4375 7.375 -0.6875 9.0625 C-4.04924475 9.38584339 -7.32199311 9.29775873 -10.6875 9.0625 C-11.0175 7.4125 -11.3475 5.7625 -11.6875 4.0625 C-7.77955721 0.9630971 -4.97782666 -0.07214242 0 0 Z " fill="#070207" transform="translate(393.6875,271.9375)"/>
<path d="M0 0 C0.66 0 1.32 0 2 0 C2.66 1.65 3.32 3.3 4 5 C10.73881911 5.67277818 10.73881911 5.67277818 16.625 3 C17.07875 2.34 17.5325 1.68 18 1 C18.66 1.33 19.32 1.66 20 2 C20 2.66 20 3.32 20 4 C20.66 4 21.32 4 22 4 C21.10364828 6.2408793 20.41833601 7.69879807 18.4375 9.125 C14.90506609 10.3930532 11.44979239 10.20997756 7.75 10.125 C7.00492188 10.11597656 6.25984375 10.10695312 5.4921875 10.09765625 C3.66131941 10.07418358 1.83061762 10.03831525 0 10 C0 6.7 0 3.4 0 0 Z " fill="#DA073D" transform="translate(226,192)"/>
<path d="M0 0 C7.22246261 -0.05097556 14.4448783 -0.08584878 21.66748047 -0.10986328 C24.12127415 -0.1198814 26.57505601 -0.13349966 29.02880859 -0.15087891 C32.56871469 -0.17531188 36.10846206 -0.18652534 39.6484375 -0.1953125 C40.73426117 -0.20563507 41.82008484 -0.21595764 42.93881226 -0.22659302 C59.48411735 -0.22899551 59.48411735 -0.22899551 63.77597046 3.57345581 C64.17990021 4.04421539 64.58382996 4.51497498 65 5 C64.67 5.99 64.34 6.98 64 8 C63.50757813 7.34257812 63.01515625 6.68515625 62.5078125 6.0078125 C59.05814896 3.24593235 56.07875582 3.63076771 51.875 3.875 C47.16461226 4.10623722 42.95320123 4.08588069 38.33984375 3.01171875 C31.81245044 1.57211211 25.33949086 1.82238951 18.6875 1.9375 C16.21229887 1.97200203 13.73703188 2.00212608 11.26171875 2.02734375 C10.17850342 2.04531006 9.09528809 2.06327637 7.97924805 2.08178711 C5.19001977 2.00521647 2.70953242 1.64028664 0 1 C0 0.67 0 0.34 0 0 Z " fill="#102456" transform="translate(93,326)"/>
<path d="M0 0 C0.90105469 0.00902344 1.80210937 0.01804687 2.73046875 0.02734375 C3.41753906 0.03894531 4.10460937 0.05054688 4.8125 0.0625 C3.3383216 6.69630282 3.3383216 6.69630282 1.0625 8.28125 C-1.57160641 9.19587028 -3.65570349 9.26070517 -6.4375 9.1875 C-7.32953125 9.16945313 -8.2215625 9.15140625 -9.140625 9.1328125 C-10.15382812 9.09800781 -10.15382812 9.09800781 -11.1875 9.0625 C-11.3515625 4.28125 -11.3515625 4.28125 -9.875 2.3125 C-6.68849469 -0.0478743 -3.81750926 -0.04957804 0 0 Z " fill="#040505" transform="translate(217.1875,271.9375)"/>
<path d="M0 0 C2.475 0.495 2.475 0.495 5 1 C6.53266582 4.06533164 6.10276471 7.26754272 6.0625 10.625 C6.05798828 11.33140625 6.05347656 12.0378125 6.04882812 12.765625 C6.03703875 14.51045275 6.01910324 16.255237 6 18 C5.01 17.67 4.02 17.34 3 17 C2.67 15.35 2.34 13.7 2 12 C1.34 12 0.68 12 0 12 C0 8.04 0 4.08 0 0 Z " fill="#BF075C" transform="translate(226,180)"/>
<path d="M0 0 C1.65 0 3.3 0 5 0 C5 5.28 5 10.56 5 16 C4.01 15.67 3.02 15.34 2 15 C2 14.01 2 13.02 2 12 C1.34 12 0.68 12 0 12 C0 8.04 0 4.08 0 0 Z " fill="#8205DA" transform="translate(283,179)"/>
<path d="M0 0 C0 0.66 0 1.32 0 2 C1.98 2.66 3.96 3.32 6 4 C6 4.66 6 5.32 6 6 C7.32 6.66 8.64 7.32 10 8 C9.67 8.99 9.34 9.98 9 11 C8.525625 10.401875 8.05125 9.80375 7.5625 9.1875 C1.89256455 4.3473112 -3.76678241 3.75618167 -11.0625 4.3125 C-13.04368007 4.52355355 -15.02380462 4.74648498 -17 5 C-14.35029405 3.23352937 -11.98501901 2.02985003 -9.0625 0.8125 C-8.20785156 0.44769531 -7.35320312 0.08289063 -6.47265625 -0.29296875 C-3.81725523 -1.05225403 -2.55820275 -0.93187432 0 0 Z " fill="#09132F" transform="translate(149,319)"/>
<path d="M0 0 C0.66 0 1.32 0 2 0 C4.82792793 4.2418919 4.78122286 8.01873743 4 13 C2.31987353 16.12291165 0.21670326 18.39164837 -3 20 C-4.37548156 20.08308638 -5.75485796 20.10736016 -7.1328125 20.09765625 C-7.93847656 20.09443359 -8.74414062 20.09121094 -9.57421875 20.08789062 C-10.41597656 20.07951172 -11.25773438 20.07113281 -12.125 20.0625 C-12.97449219 20.05798828 -13.82398438 20.05347656 -14.69921875 20.04882812 C-16.79950909 20.03702874 -18.8997633 20.01909306 -21 20 C-21 19.67 -21 19.34 -21 19 C-19.46279297 18.94392578 -19.46279297 18.94392578 -17.89453125 18.88671875 C-16.53381938 18.82102921 -15.17314389 18.75458291 -13.8125 18.6875 C-12.80219727 18.65366211 -12.80219727 18.65366211 -11.77148438 18.61914062 C-7.3894177 18.38400534 -4.52383671 17.62972889 -1 15 C1.80009248 11.3998811 1.20739794 7.35535677 1 3 C0.67 2.01 0.34 1.02 0 0 Z " fill="#30121F" transform="translate(248,183)"/>
<path d="M0 0 C0.66 0 1.32 0 2 0 C5.00559652 5.00932754 5.29341888 8.32723489 5 14 C3.02 14 1.04 14 -1 14 C-0.67 9.38 -0.34 4.76 0 0 Z " fill="#F1070B" transform="translate(203,188)"/>
<path d="M0 0 C0.66 0.66 1.32 1.32 2 2 C0.15794162 4.54379491 -1.72478134 6.83312509 -4 9 C-9.44876003 7.27933894 -14.71169451 5.15294651 -20 3 C-16.58389775 2.05685873 -13.54865136 1.91934883 -10 2 C-9.67 2.66 -9.34 3.32 -9 4 C-4.03088634 2.87302957 -4.03088634 2.87302957 0 0 Z " fill="#0D1C44" transform="translate(152,186)"/>
<path d="M0 0 C1.890625 0.33984375 1.890625 0.33984375 4 1 C5.75 3.5625 5.75 3.5625 7 6 C7.66 4.68 8.32 3.36 9 2 C9.125 9.75 9.125 9.75 8 12 C7.01 12 6.02 12 5 12 C5 11.34 5 10.68 5 10 C4.01 9.67 3.02 9.34 2 9 C1.26953125 6.93359375 1.26953125 6.93359375 0.8125 4.4375 C0.65394531 3.61121094 0.49539062 2.78492188 0.33203125 1.93359375 C0.16767578 0.97646484 0.16767578 0.97646484 0 0 Z " fill="#AD0671" transform="translate(241,184)"/>
<path d="M0 0 C0.99 0.33 1.98 0.66 3 1 C3 1.66 3 2.32 3 3 C3.66 3 4.32 3 5 3 C4.375 4.875 4.375 4.875 3 7 C-0.125 8.25 -0.125 8.25 -3 9 C-3 8.34 -3 7.68 -3 7 C-5.64 6.67 -8.28 6.34 -11 6 C-11 5.67 -11 5.34 -11 5 C-9.1128125 4.87625 -9.1128125 4.87625 -7.1875 4.75 C-3.66188788 4.33442857 -3.66188788 4.33442857 -1 1.9375 C-0.67 1.298125 -0.34 0.65875 0 0 Z " fill="#BE0658" transform="translate(243,193)"/>
<path d="M0 0 C2.31 0 4.62 0 7 0 C7.66 0.66 8.32 1.32 9 2 C7.02 2 5.04 2 3 2 C2.67 5.96 2.34 9.92 2 14 C3.98 14 5.96 14 8 14 C8 14.33 8 14.66 8 15 C5.36 15 2.72 15 0 15 C0 10.05 0 5.1 0 0 Z " fill="#210F1F" transform="translate(232,183)"/>
<path d="M0 0 C0.66 0.33 1.32 0.66 2 1 C1.67 5.29 1.34 9.58 1 14 C-0.98 14 -2.96 14 -5 14 C-5 12.02 -5 10.04 -5 8 C-4.01 7.67 -3.02 7.34 -2 7 C-1.67 7.66 -1.34 8.32 -1 9 C-0.67 6.03 -0.34 3.06 0 0 Z " fill="#9B0875" transform="translate(270,188)"/>
<path d="M0 0 C1.79133978 -0.05391993 3.58313899 -0.09275571 5.375 -0.125 C6.37273437 -0.14820313 7.37046875 -0.17140625 8.3984375 -0.1953125 C11 0 11 0 13 2 C12.8125 4.0625 12.8125 4.0625 12 6 C11.01 6.33 10.02 6.66 9 7 C8.34 6.01 7.68 5.02 7 4 C4.69855891 2.92863949 2.3659787 1.92010283 0 1 C0 0.67 0 0.34 0 0 Z " fill="#132A65" transform="translate(143,329)"/>
<path d="M0 0 C0.66 0.33 1.32 0.66 2 1 C0.125 3.5625 0.125 3.5625 -3 6 C-6.4012864 6.23391747 -9.64629097 5.53497503 -13 5 C-15.37338422 4.79304928 -17.74855988 4.60576646 -20.125 4.4375 C-21.79949219 4.31181641 -21.79949219 4.31181641 -23.5078125 4.18359375 C-24.33023438 4.12300781 -25.15265625 4.06242188 -26 4 C-26 3.67 -26 3.34 -26 3 C-12.11572334 2.82668725 -12.11572334 2.82668725 -7.9375 3.75 C-4.82579372 4.32027048 -4.82579372 4.32027048 -2.0625 2.0625 C-1.381875 1.381875 -0.70125 0.70125 0 0 Z " fill="#1F42A0" transform="translate(132,180)"/>
<path d="M0 0 C2.97 0.33 5.94 0.66 9 1 C8.67 2.32 8.34 3.64 8 5 C5.6875 5.625 5.6875 5.625 3 6 C2.01 5.34 1.02 4.68 0 4 C0 2.68 0 1.36 0 0 Z " fill="#2044A4" transform="translate(131,337)"/>
<path d="M0 0 C1.9375 0.375 1.9375 0.375 4 1 C5.60725635 4.21451269 5.05748185 7.43612536 5 11 C4.34 9.68 3.68 8.36 3 7 C2.01 7.33 1.02 7.66 0 8 C0 5.36 0 2.72 0 0 Z " fill="#A70692" transform="translate(265,188)"/>
<path d="M0 0 C3 3 3 3 3.07421875 5.69921875 C2.88279297 7.17841797 2.88279297 7.17841797 2.6875 8.6875 C2.50767578 10.17830078 2.50767578 10.17830078 2.32421875 11.69921875 C2.21722656 12.45847656 2.11023438 13.21773437 2 14 C0.02 14 -1.96 14 -4 14 C-2.68 13.67 -1.36 13.34 0 13 C0 8.71 0 4.42 0 0 Z " fill="#18121E" transform="translate(271,189)"/>
<path d="M0 0 C1.65 0 3.3 0 5 0 C5 3.3 5 6.6 5 10 C3 7 3 7 3 5 C2.01 5 1.02 5 0 5 C0 3.35 0 1.7 0 0 Z " fill="#7504ED" transform="translate(283,179)"/>
<path d="M0 0 C2.475 0.495 2.475 0.495 5 1 C6.231394 4.69418201 5.64432764 7.2056261 5 11 C2.64046906 8.64046906 2.50858587 7.22104383 2 4 C1.34 4 0.68 4 0 4 C0 2.68 0 1.36 0 0 Z " fill="#B6067F" transform="translate(226,180)"/>
<path d="M0 0 C0.66 0.33 1.32 0.66 2 1 C0.8758824 2.29243468 -0.24932592 3.58392075 -1.375 4.875 C-2.00148438 5.59429687 -2.62796875 6.31359375 -3.2734375 7.0546875 C-4.47426834 8.4076598 -5.7208345 9.7208345 -7 11 C-7.99 10.67 -8.98 10.34 -10 10 C-6.7 6.7 -3.4 3.4 0 0 Z " fill="#234BB5" transform="translate(50,186)"/>
<path d="M0 0 C-1.44781793 3.44428265 -3.27694609 5.36130962 -6.125 7.75 C-7.21167969 8.67039063 -7.21167969 8.67039063 -8.3203125 9.609375 C-8.87460937 10.06828125 -9.42890625 10.5271875 -10 11 C-10 8 -10 8 -8.3203125 5.95703125 C-7.23363281 4.89548828 -7.23363281 4.89548828 -6.125 3.8125 C-5.40570313 3.09707031 -4.68640625 2.38164062 -3.9453125 1.64453125 C-2 0 -2 0 0 0 Z " fill="#0A1738" transform="translate(64,201)"/>
<path d="M0 0 C0.66 0 1.32 0 2 0 C4.16721782 3.25082673 4.27221018 4.29232153 4.25 8.0625 C4.25515625 8.94035156 4.2603125 9.81820312 4.265625 10.72265625 C4 13 4 13 2 15 C1.08417638 12.25252914 0.95778589 9.80278294 1 6.9375 C1.20752447 3.09552714 1.20752447 3.09552714 0 0 Z " fill="#19121D" transform="translate(248,183)"/>
<path d="M0 0 C0.66 0 1.32 0 2 0 C2.33 0.99 2.66 1.98 3 3 C3.66 3.33 4.32 3.66 5 4 C5 6.31 5 8.62 5 11 C2.69 11 0.38 11 -2 11 C-2 10.67 -2 10.34 -2 10 C-0.35 9.67 1.3 9.34 3 9 C2.67 7.35 2.34 5.7 2 4 C1.34 4 0.68 4 0 4 C0 2.68 0 1.36 0 0 Z " fill="#9905A5" transform="translate(283,191)"/>
<path d="M0 0 C0.66 0.66 1.32 1.32 2 2 C-1.78756477 5.61139896 -1.78756477 5.61139896 -4 7 C-6.875 6.8125 -6.875 6.8125 -9 6 C-6.76362469 3.76362469 -4.90380073 3.16152029 -2 2 C-1.34 1.34 -0.68 0.68 0 0 Z " fill="#102252" transform="translate(152,186)"/>
<path d="M0 0 C0.66 0 1.32 0 2 0 C5.07692308 5.41538462 5.07692308 5.41538462 4.6875 8.375 C4.460625 8.91125 4.23375 9.4475 4 10 C3.34 8.35 2.68 6.7 2 5 C1.34 5 0.68 5 0 5 C0 3.35 0 1.7 0 0 Z " fill="#E60728" transform="translate(203,188)"/>
<path d="M0 0 C1.98 0 3.96 0 6 0 C6 2.31 6 4.62 6 7 C4.35 5.35 2.7 3.7 1 2 C0.67 2.66 0.34 3.32 0 4 C0 2.68 0 1.36 0 0 Z " fill="#C40660" transform="translate(202,179)"/>
<path d="M0 0 C1.8125 0.1875 1.8125 0.1875 4 1 C5.8125 3.375 5.8125 3.375 7 6 C6.67 6.99 6.34 7.98 6 9 C5.67 8.01 5.34 7.02 5 6 C4.34 6 3.68 6 3 6 C2.01 4.02 1.02 2.04 0 0 Z " fill="#AA0585" transform="translate(241,184)"/>
<path d="M0 0 C3 1 3 1 4.1875 2.875 C5 5 5 5 5 8 C4.34 8 3.68 8 3 8 C2.67 6.68 2.34 5.36 2 4 C1.34 4 0.68 4 0 4 C0 2.68 0 1.36 0 0 Z " fill="#D0064F" transform="translate(203,181)"/>
<path d="M0 0 C5.28 0 10.56 0 16 0 C15.67 0.66 15.34 1.32 15 2 C10 2 5 2 0 2 C0 1.34 0 0.68 0 0 Z " fill="#CEAE25" transform="translate(327,178)"/>
<path d="M0 0 C0.12375 0.639375 0.2475 1.27875 0.375 1.9375 C0.58125 2.618125 0.7875 3.29875 1 4 C1.66 4.33 2.32 4.66 3 5 C1.68 5.33 0.36 5.66 -1 6 C-1 5.34 -1 4.68 -1 4 C-3.64 3.67 -6.28 3.34 -9 3 C-9 2.67 -9 2.34 -9 2 C-6.94921875 1.77213542 -4.8984375 1.54427083 -2.84765625 1.31640625 C-0.98859771 1.18113386 -0.98859771 1.18113386 0 0 Z " fill="#B6073F" transform="translate(241,196)"/>
<path d="M0 0 C0.99 0.33 1.98 0.66 3 1 C3 1.66 3 2.32 3 3 C3.66 3 4.32 3 5 3 C5 4.32 5 5.64 5 7 C4.01 6.67 3.02 6.34 2 6 C2 5.01 2 4.02 2 3 C1.34 3 0.68 3 0 3 C0 2.01 0 1.02 0 0 Z " fill="#8D05C4" transform="translate(283,188)"/>
<path d="M0 0 C1.32 0.33 2.64 0.66 4 1 C4.33 2.98 4.66 4.96 5 7 C4.34 6.67 3.68 6.34 3 6 C3 5.01 3 4.02 3 3 C2.01 3.33 1.02 3.66 0 4 C0 2.68 0 1.36 0 0 Z " fill="#9D05A4" transform="translate(265,188)"/>
<path d="M0 0 C0.66 0 1.32 0 2 0 C2.66 1.98 3.32 3.96 4 6 C2.68 6 1.36 6 0 6 C0 4.02 0 2.04 0 0 Z " fill="#E10630" transform="translate(226,196)"/>
<path d="M0 0 C0.99 0.33 1.98 0.66 3 1 C-0.32307692 4.93846154 -0.32307692 4.93846154 -3.75 5.25 C-4.4925 5.1675 -5.235 5.085 -6 5 C-4.07182111 3.07182111 -2.30026035 1.46380204 0 0 Z " fill="#1A3888" transform="translate(135,182)"/>
</svg>
