<?xml version="1.0" encoding="UTF-8"?>
<svg version="1.1" xmlns="http://www.w3.org/2000/svg" width="878" height="260">
<path d="M0 0 C12.87 0 25.74 0 39 0 C39 0.66 39 1.32 39 2 C40.18142578 2.03867188 40.18142578 2.03867188 41.38671875 2.078125 C49.77308795 2.51481168 57.09044639 4.21676919 65 7 C65 7.66 65 8.32 65 9 C65.86625 9.103125 66.7325 9.20625 67.625 9.3125 C71.16683123 10.03398414 73.84312042 11.27123261 77 13 C77 13.66 77 14.32 77 15 C77.721875 15.103125 78.44375 15.20625 79.1875 15.3125 C82.27746686 16.06782523 84.39558686 17.19137976 87 19 C87.33 19.66 87.66 20.32 88 21 C89.66386617 22.00465275 91.33103025 23.00384854 93 24 C99.15201016 29.01458063 105.32381509 34.54314865 110 41 C110 41.66 110 42.32 110 43 C110.66 43 111.32 43 112 43 C114.25367921 46.17649493 116.08086939 49.61359758 118 53 C118.680625 54.093125 119.36125 55.18625 120.0625 56.3125 C121 59 121 59 119.9375 61.8125 C117.90063294 64.11218862 116.99881899 64.68977735 114 65 C114 65.99 114 66.98 114 68 C113.01 68.33 112.02 68.66 111 69 C110.67 69.99 110.34 70.98 110 72 C108.329375 72.185625 108.329375 72.185625 106.625 72.375 C102.96896323 72.6465813 102.96896323 72.6465813 101 75 C98 71.375 98 71.375 98 68 C97.34 68 96.68 68 96 68 C94.6559907 66.00715862 93.32458708 64.00580329 92 62 C89.67790064 59.50374319 87.44046285 57.32141884 84.6875 55.3125 C84.130625 54.879375 83.57375 54.44625 83 54 C83 53.34 83 52.68 83 52 C82.42765625 51.731875 81.8553125 51.46375 81.265625 51.1875 C78.92115366 49.95867364 76.87595062 48.57477824 74.75 47 C74.04359375 46.484375 73.3371875 45.96875 72.609375 45.4375 C72.07828125 44.963125 71.5471875 44.48875 71 44 C71 43.34 71 42.68 71 42 C69.35 41.67 67.7 41.34 66 41 C66 40.34 66 39.68 66 39 C65.01 38.731875 64.02 38.46375 63 38.1875 C58.90387216 37.023161 54.97156367 35.53288422 51 34 C51 33.34 51 32.68 51 32 C48.03 31.67 45.06 31.34 42 31 C42 30.34 42 29.68 42 29 C31.11 28.505 31.11 28.505 20 28 C20 27.34 20 26.68 20 26 C19.34 26 18.68 26 18 26 C18 26.66 18 27.32 18 28 C17.39003174 28.0501123 16.78006348 28.10022461 16.15161133 28.15185547 C13.37116574 28.38485813 10.59189654 28.62981295 7.8125 28.875 C6.85279297 28.95363281 5.89308594 29.03226563 4.90429688 29.11328125 C3.50727539 29.23896484 3.50727539 29.23896484 2.08203125 29.3671875 C0.80162964 29.47716064 0.80162964 29.47716064 -0.50463867 29.58935547 C-3.0648718 29.91679264 -3.0648718 29.91679264 -5.56762695 31.03955078 C-8 32 -8 32 -12 32 C-12 32.66 -12 33.32 -12 34 C-16.96260257 35.91539047 -21.86626838 37.60961435 -27 39 C-27 39.66 -27 40.32 -27 41 C-29.9826906 42.52448631 -32.818202 43.93940067 -36 45 C-36 45.66 -36 46.32 -36 47 C-36.9590625 47.1546875 -36.9590625 47.1546875 -37.9375 47.3125 C-38.618125 47.539375 -39.29875 47.76625 -40 48 C-40.33 48.99 -40.66 49.98 -41 51 C-41.66 51 -42.32 51 -43 51 C-43.33 51.99 -43.66 52.98 -44 54 C-45.64639965 55.35827971 -47.31295807 56.69254251 -49 58 C-49.495 58.99 -49.495 58.99 -50 60 C-50.66 60 -51.32 60 -52 60 C-52.268125 60.721875 -52.53625 61.44375 -52.8125 62.1875 C-53.99901362 64.99766383 -55.27485639 67.48416557 -57 70 C-57.66 70 -58.32 70 -59 70 C-59.495 71.98 -59.495 71.98 -60 74 C-60.66 74 -61.32 74 -62 74 C-62.33 75.98 -62.66 77.96 -63 80 C-63.66 80 -64.32 80 -65 80 C-65.33 82.64 -65.66 85.28 -66 88 C-66.66 88 -67.32 88 -68 88 C-68.33 90.64 -68.66 93.28 -69 96 C-69.66 96 -70.32 96 -71 96 C-71.89579962 111.42562886 -71.98660433 126.57861546 -71 142 C-70.34 142 -69.68 142 -69 142 C-68.67 144.64 -68.34 147.28 -68 150 C-67.34 150 -66.68 150 -66 150 C-65.67 152.64 -65.34 155.28 -65 158 C-64.34 158 -63.68 158 -63 158 C-62.67 159.98 -62.34 161.96 -62 164 C-61.01 164.33 -60.02 164.66 -59 165 C-59 165.99 -59 166.98 -59 168 C-58.34 168 -57.68 168 -57 168 C-55.7109375 169.6796875 -55.7109375 169.6796875 -54.375 171.875 C-53.92898437 172.59429687 -53.48296875 173.31359375 -53.0234375 174.0546875 C-52 176 -52 176 -52 178 C-51.34 178 -50.68 178 -50 178 C-48.65080468 179.65385233 -47.31866272 181.321702 -46 183 C-45.01 183.66 -44.02 184.32 -43 185 C-43 185.66 -43 186.32 -43 187 C-42.01 187.33 -41.02 187.66 -40 188 C-40 188.66 -40 189.32 -40 190 C-38.68 190.33 -37.36 190.66 -36 191 C-36 191.66 -36 192.32 -36 193 C-33.06279492 194.52299523 -30.0831351 195.80100302 -27 197 C-27 197.66 -27 198.32 -27 199 C-25.515 199.4021875 -25.515 199.4021875 -24 199.8125 C-19.90387216 200.976839 -15.97156367 202.46711578 -12 204 C-12 204.66 -12 205.32 -12 206 C-10.700625 206.144375 -9.40125 206.28875 -8.0625 206.4375 C-4.125 206.875 -4.125 206.875 -3 208 C-1.44246949 208.22670908 0.12377359 208.39435092 1.69140625 208.53515625 C2.63564453 208.62216797 3.57988281 208.70917969 4.55273438 208.79882812 C6.04256836 208.9293457 6.04256836 208.9293457 7.5625 209.0625 C8.55958984 209.15337891 9.55667969 209.24425781 10.58398438 209.33789062 C13.05565702 209.56258814 15.52763256 209.78310351 18 210 C18 210.66 18 211.32 18 212 C18.99 211.34 19.98 210.68 21 210 C23.26831055 209.68115234 23.26831055 209.68115234 25.88671875 209.5859375 C26.82451172 209.54726562 27.76230469 209.50859375 28.72851562 209.46875 C30.19321289 209.42234375 30.19321289 209.42234375 31.6875 209.375 C32.67556641 209.33632812 33.66363281 209.29765625 34.68164062 209.2578125 C37.12090707 209.16354133 39.56016595 209.07793782 42 209 C42 208.34 42 207.68 42 207 C43.155 206.835 44.31 206.67 45.5 206.5 C51.26595167 205.25852715 56.23356232 202.5570899 61.4140625 199.83203125 C64.59377158 198.16499931 67.49381024 196.76753611 71 196 C71 195.34 71 194.68 71 194 C72.58203125 192.80859375 72.58203125 192.80859375 74.8125 191.4375 C85.21837387 185.25235739 85.21837387 185.25235739 92 176 C93.98 176 95.96 176 98 176 C98 177.98 98 179.96 98 182 C98.67546875 182.02578125 99.3509375 182.0515625 100.046875 182.078125 C107.43088772 182.5476287 107.43088772 182.5476287 110.4375 184.9375 C110.953125 185.618125 111.46875 186.29875 112 187 C112.99 187.66 113.98 188.32 115 189 C114.05016642 190.50539661 113.08988109 192.00420347 112.125 193.5 C111.59132812 194.3353125 111.05765625 195.170625 110.5078125 196.03125 C110.01023438 196.6809375 109.51265625 197.330625 109 198 C108.34 198 107.68 198 107 198 C106.72671875 198.58910156 106.4534375 199.17820313 106.171875 199.78515625 C103.11412654 205.56430084 98.17808848 210.11643364 93 214 C92.34 214 91.68 214 91 214 C91 214.66 91 215.32 91 216 C90.01 216.33 89.02 216.66 88 217 C87.67 217.66 87.34 218.32 87 219 C80.64705882 223 80.64705882 223 77 223 C77 223.66 77 224.32 77 225 C64.08832155 230.78253084 53.33687266 235.35738902 39 236 C39 236.66 39 237.32 39 238 C26.13 238 13.26 238 0 238 C0 237.34 0 236.68 0 236 C-1.134375 236.04125 -2.26875 236.0825 -3.4375 236.125 C-11.0845081 236.09812124 -17.6927604 233.8792359 -24.69140625 230.953125 C-27.41840551 229.82725729 -30.18739256 228.88819182 -33 228 C-33 227.34 -33 226.68 -33 226 C-34.65 225.67 -36.3 225.34 -38 225 C-38 224.34 -38 223.68 -38 223 C-39.98 222.67 -41.96 222.34 -44 222 C-44 221.34 -44 220.68 -44 220 C-45.2065625 219.814375 -45.2065625 219.814375 -46.4375 219.625 C-47.283125 219.41875 -48.12875 219.2125 -49 219 C-49.33 218.34 -49.66 217.68 -50 217 C-52.01669827 215.86649466 -52.01669827 215.86649466 -54 215 C-54 214.34 -54 213.68 -54 213 C-54.5775 212.71125 -55.155 212.4225 -55.75 212.125 C-56.86375 211.568125 -56.86375 211.568125 -58 211 C-58.99 210.5978125 -58.99 210.5978125 -60 210.1875 C-62.69224241 208.58898107 -64.09914619 206.47687012 -66 204 C-66.86625 203.175 -67.7325 202.35 -68.625 201.5 C-71.00287311 198.99697568 -71.77434861 197.151675 -73 194 C-73.99 193.67 -74.98 193.34 -76 193 C-76 192.34 -76 191.68 -76 191 C-76.66 191 -77.32 191 -78 191 C-78.33 190.01 -78.66 189.02 -79 188 C-79.66 187.67 -80.32 187.34 -81 187 C-81.625 184.4375 -81.625 184.4375 -82 182 C-82.66 182 -83.32 182 -84 182 C-84.84026396 180.23244474 -85.67198722 178.46082737 -86.5 176.6875 C-86.9640625 175.70136719 -87.428125 174.71523437 -87.90625 173.69921875 C-89 171 -89 171 -89 168 C-89.66 168 -90.32 168 -91 168 C-91.33 165.69 -91.66 163.38 -92 161 C-92.66 161 -93.32 161 -94 161 C-94.33 158.03 -94.66 155.06 -95 152 C-95.66 152 -96.32 152 -97 152 C-97.13277344 151.07316406 -97.26554687 150.14632812 -97.40234375 149.19140625 C-97.57894531 147.99386719 -97.75554687 146.79632813 -97.9375 145.5625 C-98.11152344 144.36753906 -98.28554687 143.17257813 -98.46484375 141.94140625 C-98.68985213 139.12044324 -98.68985213 139.12044324 -100 138 C-100.10103255 135.20006403 -100.13970088 132.42531356 -100.1328125 129.625 C-100.13376923 128.78533691 -100.13472595 127.94567383 -100.13571167 127.08056641 C-100.13639348 125.30175705 -100.13453917 123.52294523 -100.13037109 121.74414062 C-100.12502283 119.01166224 -100.13031605 116.27934824 -100.13671875 113.546875 C-100.13605797 111.8229163 -100.13477681 110.09895771 -100.1328125 108.375 C-100.13483673 107.55209473 -100.13686096 106.72918945 -100.13894653 105.88134766 C-100.11495054 100.11495054 -100.11495054 100.11495054 -99 99 C-98.60333773 96.81980521 -98.25684763 94.6303537 -97.9375 92.4375 C-97.67259766 90.64119141 -97.67259766 90.64119141 -97.40234375 88.80859375 C-97.26957031 87.88175781 -97.13679688 86.95492187 -97 86 C-96.34 86 -95.68 86 -95 86 C-94.67 83.03 -94.34 80.06 -94 77 C-93.34 77 -92.68 77 -92 77 C-91.67 74.69 -91.34 72.38 -91 70 C-90.34 70 -89.68 70 -89 70 C-88.9175 69.175 -88.835 68.35 -88.75 67.5 C-87.83552731 63.23246079 -86.07776822 59.80763106 -84 56 C-83.34 56 -82.68 56 -82 56 C-81.87625 55.195625 -81.7525 54.39125 -81.625 53.5625 C-81.315625 52.2940625 -81.315625 52.2940625 -81 51 C-80.01 50.505 -80.01 50.505 -79 50 C-78.67 49.01 -78.34 48.02 -78 47 C-77.34 47 -76.68 47 -76 47 C-75.67 46.01 -75.34 45.02 -75 44 C-74.34 44 -73.68 44 -73 44 C-72.690625 42.9790625 -72.690625 42.9790625 -72.375 41.9375 C-69.64618085 36.10774999 -65.14233012 31.78908535 -60 28 C-59.278125 27.4225 -58.55625 26.845 -57.8125 26.25 C-56 25 -56 25 -54 25 C-53.505 23.515 -53.505 23.515 -53 22 C-52.01 21.67 -51.02 21.34 -50 21 C-49.67 20.34 -49.34 19.68 -49 19 C-46.4375 18.375 -46.4375 18.375 -44 18 C-44 17.34 -44 16.68 -44 16 C-42.02 15.67 -40.04 15.34 -38 15 C-38 14.34 -38 13.68 -38 13 C-36.35 12.67 -34.7 12.34 -33 12 C-33 11.34 -33 10.68 -33 10 C-31.948125 9.61908203 -31.948125 9.61908203 -30.875 9.23046875 C-29.92625 8.88628906 -28.9775 8.54210938 -28 8.1875 C-26.99582031 7.82398438 -25.99164063 7.46046875 -24.95703125 7.0859375 C-22.52035306 6.19109399 -20.10377638 5.26024336 -17.6875 4.3125 C-11.65726304 2.16614447 -6.3243714 1.89095911 0 2 C0 1.34 0 0.68 0 0 Z " fill="#2D62EE" transform="translate(123,12)"/>
<path d="M0 0 C0.66902344 -0.01393799 1.33804688 -0.02787598 2.02734375 -0.04223633 C7.04900264 0.00542981 10.45560862 1.20548059 14.875 3.375 C14.875 4.035 14.875 4.695 14.875 5.375 C15.865 5.705 16.855 6.035 17.875 6.375 C19.5625 7.9375 19.5625 7.9375 20.875 9.375 C21.42027344 8.97667969 21.96554687 8.57835938 22.52734375 8.16796875 C32.74471866 0.98960792 41.31894548 -0.70123324 53.875 0.375 C56.83226551 1.10799743 59.12665136 2.02887005 61.875 3.375 C61.875 4.035 61.875 4.695 61.875 5.375 C62.865 5.705 63.855 6.035 64.875 6.375 C70.94595941 15.01444224 69.38258111 25.77444157 67.70629883 35.69702148 C67.53509521 36.64262939 67.3638916 37.5882373 67.1875 38.5625 C67.01178467 39.5719165 66.83606934 40.58133301 66.6550293 41.62133789 C65.25623455 49.53526712 63.74125265 57.42767466 62.1875 65.3125 C61.97327393 66.40264404 61.75904785 67.49278809 61.53833008 68.6159668 C61.33618896 69.61797119 61.13404785 70.61997559 60.92578125 71.65234375 C60.74700439 72.54171631 60.56822754 73.43108887 60.3840332 74.34741211 C59.875 76.375 59.875 76.375 58.875 77.375 C56.65644736 77.46283542 54.43511504 77.48194609 52.21484375 77.47265625 C51.21814415 77.47053383 51.21814415 77.47053383 50.2013092 77.46836853 C48.07166101 77.46275518 45.94211661 77.45020054 43.8125 77.4375 C42.37174631 77.43248671 40.93099097 77.42792351 39.49023438 77.42382812 C35.95178898 77.41278145 32.41340461 77.39550792 28.875 77.375 C28.74704281 71.90597271 29.14054256 66.85080559 30.1875 61.47265625 C30.46093924 59.9902347 30.73437668 58.50781281 31.0078125 57.02539062 C31.44024061 54.73013868 31.87539521 52.43542071 32.31152344 50.14086914 C34.63150025 38.34856976 34.63150025 38.34856976 34.875 26.375 C33.72359132 25.01645975 33.72359132 25.01645975 30.625 25 C26.83456494 25.05048622 26.83456494 25.05048622 24.26953125 27.34375 C21.19193703 31.2396931 20.59377087 34.4320055 19.8125 39.25 C19.65604004 40.11044922 19.49958008 40.97089844 19.33837891 41.85742188 C18.8283611 44.69322235 18.34898559 47.53296547 17.875 50.375 C17.34304512 53.51751977 16.80933825 56.65971196 16.27172852 59.80126953 C15.92923039 61.81907555 15.59481384 63.83827334 15.26928711 65.85888672 C15.11596924 66.7820166 14.96265137 67.70514648 14.8046875 68.65625 C14.67304199 69.47158203 14.54139648 70.28691406 14.40576172 71.12695312 C13.875 73.375 13.875 73.375 11.875 77.375 C1.975 77.375 -7.925 77.375 -18.125 77.375 C-19.43006315 74.76487371 -18.9747207 73.49719351 -18.48828125 70.6328125 C-18.24307739 69.17053223 -18.24307739 69.17053223 -17.99291992 67.67871094 C-17.80963135 66.62973633 -17.62634277 65.58076172 -17.4375 64.5 C-17.25614502 63.43040039 -17.07479004 62.36080078 -16.88793945 61.25878906 C-15.52531005 53.34205874 -13.99710914 45.46433281 -12.25708008 37.62158203 C-11.22936979 32.79858677 -10.92314276 29.77871449 -13.125 25.375 C-17.94995693 25.05365866 -17.94995693 25.05365866 -22.4375 26.5625 C-26.40207184 30.82074383 -26.85155399 36.69187318 -27.78125 42.21875 C-27.92904907 43.06546265 -28.07684814 43.91217529 -28.22912598 44.7845459 C-28.69959132 47.48049742 -29.163146 50.17756076 -29.625 52.875 C-30.2333759 56.42819436 -30.84886504 59.98004752 -31.46875 63.53125 C-31.60526978 64.34283569 -31.74178955 65.15442139 -31.88244629 65.99060059 C-32.01598511 66.7548938 -32.14952393 67.51918701 -32.28710938 68.30664062 C-32.40098999 68.97328735 -32.51487061 69.63993408 -32.63220215 70.32678223 C-33.125 72.375 -33.125 72.375 -35.125 77.375 C-45.025 77.375 -54.925 77.375 -65.125 77.375 C-66.20814378 74.12556867 -66.05293997 73.00107452 -65.41015625 69.72265625 C-65.22227539 68.73894043 -65.03439453 67.75522461 -64.84082031 66.74169922 C-64.62522461 65.65131348 -64.40962891 64.56092773 -64.1875 63.4375 C-63.72386041 61.02500822 -63.26173803 58.61222457 -62.80078125 56.19921875 C-62.67299286 55.53424377 -62.54520447 54.8692688 -62.4135437 54.18414307 C-61.2445179 48.07485962 -60.13990356 41.95462011 -59.04296875 35.83203125 C-58.86431778 34.83730301 -58.68566681 33.84257477 -58.50160217 32.81770325 C-57.77740021 28.78485279 -57.05337834 24.7519826 -56.3352356 20.7180481 C-55.82603643 17.86085381 -55.31194802 15.00457784 -54.796875 12.1484375 C-54.64288742 11.27673416 -54.48889984 10.40503082 -54.33024597 9.50691223 C-53.23875778 3.48875778 -53.23875778 3.48875778 -52.125 2.375 C-50.19832493 2.28751793 -48.26848139 2.26802666 -46.33984375 2.27734375 C-45.17001953 2.28056641 -44.00019531 2.28378906 -42.79492188 2.28710938 C-41.56322266 2.29548828 -40.33152344 2.30386719 -39.0625 2.3125 C-37.20915039 2.31926758 -37.20915039 2.31926758 -35.31835938 2.32617188 C-32.25385883 2.33800392 -29.18945279 2.35448827 -26.125 2.375 C-25.63 5.345 -25.63 5.345 -25.125 8.375 C-24.65191406 8.04886719 -24.17882812 7.72273438 -23.69140625 7.38671875 C-15.8920988 2.23279043 -9.41097258 0.12627108 0 0 Z " fill="#9668AD" transform="translate(394.125,105.625)"/>
<path d="M0 0 C1.29349365 0.00523682 2.5869873 0.01047363 3.91967773 0.01586914 C4.9496714 0.01799156 4.9496714 0.01799156 6.00047302 0.02015686 C8.20144949 0.0257706 10.40232557 0.03832532 12.60327148 0.05102539 C14.09220231 0.05603863 15.58113473 0.06060184 17.07006836 0.06469727 C20.72700223 0.07574446 24.38387707 0.09301826 28.04077148 0.11352539 C27.50062501 6.61357146 26.59339988 12.89511331 25.22827148 19.26977539 C23.69009546 26.70675786 22.30009255 34.15552262 21.04077148 41.64477539 C20.87601318 42.62406006 20.71125488 43.60334473 20.54150391 44.61230469 C20.03900702 47.61234095 19.53934478 50.61283472 19.04077148 53.61352539 C17.11755929 65.18848318 15.17633057 76.75505254 12.91577148 88.26977539 C12.7572168 89.09119019 12.59866211 89.91260498 12.43530273 90.75891113 C12.20520508 91.90607605 12.20520508 91.90607605 11.97045898 93.07641602 C11.83881348 93.73855103 11.70716797 94.40068604 11.5715332 95.08288574 C10.94166868 97.49268253 9.96581388 99.80091941 9.04077148 102.11352539 C0.79077148 102.11352539 -7.45922852 102.11352539 -15.95922852 102.11352539 C-16.61922852 100.46352539 -17.27922852 98.81352539 -17.95922852 97.11352539 C-18.59344727 97.54665039 -19.22766602 97.97977539 -19.88110352 98.42602539 C-26.76762714 102.53511131 -32.26333553 103.71504288 -40.20922852 103.73852539 C-41.46751465 103.75399414 -41.46751465 103.75399414 -42.7512207 103.76977539 C-49.69308287 103.61630351 -54.85129187 101.69083871 -60.20141602 97.25415039 C-67.66380231 88.61349257 -67.50387932 80.16046459 -66.95922852 69.11352539 C-65.90428862 54.73571554 -61.01552749 41.72849166 -49.95922852 32.11352539 C-42.6120646 26.98505949 -35.41942927 24.76168984 -26.52172852 24.80102539 C-25.43408203 24.77685547 -25.43408203 24.77685547 -24.32446289 24.75219727 C-19.15230826 24.74755023 -15.58629543 25.80304007 -10.95922852 28.11352539 C-10.95922852 28.77352539 -10.95922852 29.43352539 -10.95922852 30.11352539 C-10.29922852 30.11352539 -9.63922852 30.11352539 -8.95922852 30.11352539 C-8.76586914 28.85797852 -8.57250977 27.60243164 -8.37329102 26.30883789 C-4.31793923 0.16564984 -4.31793923 0.16564984 0 0 Z M-31.95922852 54.11352539 C-35.07455794 60.18598391 -36.12048934 67.34057058 -35.95922852 74.11352539 C-35.14738919 77.28141323 -35.14738919 77.28141323 -32.95922852 79.11352539 C-29.25293398 80.46126886 -27.21175169 80.17997886 -23.39672852 79.17602539 C-19.0105458 77.05587499 -16.93657008 73.43223793 -14.95922852 69.11352539 C-14.0414456 66.19017566 -14.0414456 66.19017566 -13.95922852 63.11352539 C-13.86641602 62.0268457 -13.86641602 62.0268457 -13.77172852 60.91821289 C-13.56520924 57.00725408 -13.71235678 54.61755518 -15.45922852 51.05102539 C-18.31153166 48.84049045 -20.32516579 48.37892866 -23.93188477 48.64086914 C-27.50637084 49.47422717 -29.81434304 51.25144383 -31.95922852 54.11352539 Z " fill="#69C1AA" transform="translate(152.959228515625,80.886474609375)"/>
<path d="M0 0 C1.65672729 0.00241699 1.65672729 0.00241699 3.34692383 0.00488281 C13.61053567 0.15916598 23.67965476 1.42553604 31.75 8.375 C32.245 9.86 32.245 9.86 32.75 11.375 C33.41 11.375 34.07 11.375 34.75 11.375 C39.38208761 25.27126284 33.57351599 42.5923371 30.75 56.375 C33.39 56.375 36.03 56.375 38.75 56.375 C38.92574339 61.03219976 38.75993399 65.55878641 38.1875 70.1875 C38.08308594 71.10144531 37.97867188 72.01539063 37.87109375 72.95703125 C36.75 75.375 36.75 75.375 33.8125 77.16796875 C29.06550414 78.88024969 24.30895969 78.88920458 19.3125 78.875 C18.40951172 78.90335937 17.50652344 78.93171875 16.57617188 78.9609375 C9.90854491 78.98024996 6.04279946 77.32222814 0.75 73.375 C-0.24 72.88 -0.24 72.88 -1.25 72.375 C-3.81766031 73.34006472 -3.81766031 73.34006472 -6.625 74.75 C-13.83396264 78.22817874 -19.5536621 78.61272267 -27.5 78.6875 C-28.51191406 78.71650391 -29.52382813 78.74550781 -30.56640625 78.77539062 C-38.38774159 78.84132925 -43.69254587 77.38515349 -49.6875 72.3125 C-52.6326447 66.77562796 -52.89950575 60.28231899 -51.5625 54.1875 C-50.31170662 50.09706761 -48.71283141 45.88957436 -46.25 42.375 C-44.765 41.88 -44.765 41.88 -43.25 41.375 C-43.25 40.715 -43.25 40.055 -43.25 39.375 C-28.15506616 30.44126365 -13.58401477 29.06236246 3.75 29.375 C3.47965366 26.93782742 3.47965366 26.93782742 2.75 24.375 C-0.95126859 21.90748761 -2.87223532 22.06778844 -7.25 22.375 C-9.56984841 22.99180413 -9.56984841 22.99180413 -11.25 24.375 C-11.91 25.695 -12.57 27.015 -13.25 28.375 C-23.15 28.375 -33.05 28.375 -43.25 28.375 C-43.25 20.31398061 -42.67429805 17.11490156 -37.5546875 11.5234375 C-27.24261796 1.71235919 -13.67889865 -0.02069268 0 0 Z M-17.875 50.1875 C-19.53390479 52.33578487 -19.53390479 52.33578487 -19 55.125 C-18.7525 55.8675 -18.505 56.61 -18.25 57.375 C-12.21002706 58.54060881 -8.79986557 58.53080591 -3.25 55.375 C-0.49362351 52.61862351 0.21884846 50.19929111 0.75 46.375 C-5.79594116 46.09644931 -12.34709663 46.37061434 -17.875 50.1875 Z " fill="#AA40AE" transform="translate(517.25,105.625)"/>
<path d="M0 0 C1.5934021 0.00845947 1.5934021 0.00845947 3.21899414 0.01708984 C14.55606588 0.19293938 24.43380689 1.51864166 33.1875 9.3125 C37.13783263 14.45990313 36.55310873 20.09809515 36.1875 26.3125 C35.52983032 31.03718539 34.62723476 35.69918462 33.6875 40.375 C33.2174725 42.782303 32.74865689 45.18984305 32.28125 47.59765625 C32.07177734 48.64832275 31.86230469 49.69898926 31.64648438 50.78149414 C31.12802187 53.21176954 31.12802187 53.21176954 31.1875 55.3125 C32.321875 55.456875 33.45625 55.60125 34.625 55.75 C38.1875 56.3125 38.1875 56.3125 39.1875 57.3125 C38.94187575 60.01436677 38.59747482 62.63457935 38.1875 65.3125 C38.08695312 66.18648438 37.98640625 67.06046875 37.8828125 67.9609375 C37.75648438 68.84007812 37.63015625 69.71921875 37.5 70.625 C37.39300781 71.44613281 37.28601563 72.26726562 37.17578125 73.11328125 C36.1875 75.3125 36.1875 75.3125 33.76171875 77.08203125 C28.98395163 78.72683632 24.70360166 78.75046362 19.6875 78.6875 C18.76324219 78.69910156 17.83898437 78.71070313 16.88671875 78.72265625 C10.65966082 78.69593068 6.10831197 77.94123077 1.3125 73.625 C0.755625 72.9753125 0.755625 72.9753125 0.1875 72.3125 C-2.28406837 73.29055379 -4.73475069 74.27693521 -7.15234375 75.3828125 C-14.143676 78.22139853 -20.56680254 78.74152155 -28.0625 78.8125 C-28.99698975 78.83070801 -29.93147949 78.84891602 -30.89428711 78.86767578 C-38.28011595 78.80333129 -43.16172574 76.81039818 -49.1875 72.6875 C-52.44157693 67.93154141 -53.14975856 62.86924107 -52.40234375 57.203125 C-51.09743787 51.47009591 -49.56135124 46.85656211 -45.8125 42.3125 C-45.255625 41.631875 -44.69875 40.95125 -44.125 40.25 C-30.81056703 29.09466426 -13.29979256 29.4264522 3.1875 28.3125 C2.84305119 25.83983235 2.84305119 25.83983235 2.1875 23.3125 C-0.95591993 21.74079004 -4.37021451 22.08074217 -7.8125 22.3125 C-8.8025 22.6425 -9.7925 22.9725 -10.8125 23.3125 C-11.43572144 24.5658313 -11.43572144 24.5658313 -12.0715332 25.84448242 C-13.8125 28.3125 -13.8125 28.3125 -16.90698242 28.88012695 C-18.14810791 28.85394287 -19.3892334 28.82775879 -20.66796875 28.80078125 C-21.32960526 28.79370651 -21.99124176 28.78663177 -22.67292786 28.77934265 C-24.78310985 28.75138507 -26.8906226 28.68865847 -29 28.625 C-30.43160225 28.59991824 -31.86324617 28.57710483 -33.29492188 28.55664062 C-36.8016465 28.50155847 -40.30681271 28.41528289 -43.8125 28.3125 C-43.93260853 23.17540517 -43.72208295 20.25172487 -40.9375 15.875 C-40.13699219 14.57755859 -40.13699219 14.57755859 -39.3203125 13.25390625 C-38.82273438 12.61324219 -38.32515625 11.97257812 -37.8125 11.3125 C-37.1525 11.3125 -36.4925 11.3125 -35.8125 11.3125 C-35.8125 10.6525 -35.8125 9.9925 -35.8125 9.3125 C-34.4925 8.9825 -33.1725 8.6525 -31.8125 8.3125 C-31.8125 7.6525 -31.8125 6.9925 -31.8125 6.3125 C-30.1695741 5.67989676 -28.52295109 5.05689451 -26.875 4.4375 C-25.95847656 4.08945313 -25.04195313 3.74140625 -24.09765625 3.3828125 C-16.00150855 0.7450664 -8.51043682 -0.0469782 0 0 Z M-18.62890625 50.75 C-20.12251674 52.34743955 -20.12251674 52.34743955 -19.5 55 C-19.1596875 56.1446875 -19.1596875 56.1446875 -18.8125 57.3125 C-12.74631724 58.48316685 -9.40054982 58.4289124 -3.8125 55.3125 C-1.33018273 53.58239612 -1.33018273 53.58239612 0.1875 51.3125 C0.52248301 48.64415034 0.52248301 48.64415034 0.1875 46.3125 C-6.20250669 45.89576043 -13.45424964 46.65478788 -18.62890625 50.75 Z " fill="#828EAB" transform="translate(287.8125,105.6875)"/>
<path d="M0 0 C1.10601562 -0.01675781 2.21203125 -0.03351563 3.3515625 -0.05078125 C6.69718172 0.35121176 7.82569228 1.23298247 10.375 3.3125 C9.73569083 7.29274382 9.08746675 11.27148379 8.4375 15.25 C8.25509766 16.38630859 8.07269531 17.52261719 7.88476562 18.69335938 C7.70751953 19.77294922 7.53027344 20.85253906 7.34765625 21.96484375 C7.10414429 23.46519165 7.10414429 23.46519165 6.85571289 24.99584961 C6.375 27.3125 6.375 27.3125 5.375 28.3125 C3.02231487 28.44600672 0.66757037 28.54379068 -1.6875 28.625 C-10.37998859 29.00601763 -10.37998859 29.00601763 -17.625 33.3125 C-20.09937032 38.42255947 -21.41309039 43.2675945 -22.4140625 48.8359375 C-22.5628183 49.62271881 -22.7115741 50.40950012 -22.86483765 51.22012329 C-23.3341833 53.70789329 -23.79279566 56.19747259 -24.25 58.6875 C-24.71582517 61.19863385 -25.18396737 63.70928234 -25.65658569 66.21914673 C-25.94915394 67.77529039 -26.23754694 69.33222588 -26.52139282 70.88998413 C-27.51335505 76.20085505 -27.51335505 76.20085505 -28.625 77.3125 C-30.84355264 77.40033542 -33.06488496 77.41944609 -35.28515625 77.41015625 C-36.28185585 77.40803383 -36.28185585 77.40803383 -37.2986908 77.40586853 C-39.42833899 77.40025518 -41.55788339 77.38770054 -43.6875 77.375 C-45.12825369 77.36998671 -46.56900903 77.36542351 -48.00976562 77.36132812 C-51.54821102 77.35028145 -55.08659539 77.33300792 -58.625 77.3125 C-59.95964455 72.92308318 -58.97842339 69.31410355 -58 64.9375 C-56.12216273 56.09905742 -54.57351987 47.23082704 -53.125 38.3125 C-51.65817415 29.35063446 -50.14593394 20.40733687 -48.375 11.5 C-48.21193359 10.67048828 -48.04886719 9.84097656 -47.88085938 8.98632812 C-46.75235649 3.43985649 -46.75235649 3.43985649 -45.625 2.3125 C-43.69832493 2.22501793 -41.76848139 2.20552666 -39.83984375 2.21484375 C-38.67001953 2.21806641 -37.50019531 2.22128906 -36.29492188 2.22460938 C-35.06322266 2.23298828 -33.83152344 2.24136719 -32.5625 2.25 C-30.70915039 2.25676758 -30.70915039 2.25676758 -28.81835938 2.26367188 C-25.75385883 2.27550392 -22.68945279 2.29198827 -19.625 2.3125 C-19.625 3.9625 -19.625 5.6125 -19.625 7.3125 C-19.295 6.9825 -18.965 6.6525 -18.625 6.3125 C-12.54262477 1.92753181 -7.51762564 0.02640852 0 0 Z " fill="#75AAAA" transform="translate(234.625,105.6875)"/>
<path d="M0 0 C7.26 0 14.52 0 22 0 C22 7.875 22 7.875 21.125 12.05859375 C20.96257813 12.85322021 20.80015625 13.64784668 20.6328125 14.46655273 C20.42398438 15.44696533 20.21515625 16.42737793 20 17.4375 C19.34 20.593125 18.68 23.74875 18 27 C26.91 27 35.82 27 45 27 C44.71125 29.536875 44.4225 32.07375 44.125 34.6875 C44.03879395 35.47729248 43.95258789 36.26708496 43.86376953 37.08081055 C43.78755371 37.71801025 43.71133789 38.35520996 43.6328125 39.01171875 C43.55949707 39.65584717 43.48618164 40.29997559 43.41064453 40.96362305 C43 43 43 43 41 48 C32.09 48 23.18 48 14 48 C12.68086181 56.53601199 12.68086181 56.53601199 11.40234375 65.078125 C11.17224609 66.64820313 11.17224609 66.64820313 10.9375 68.25 C10.70353516 69.86648437 10.70353516 69.86648437 10.46484375 71.515625 C10 74 10 74 9 75 C7.43827255 75.08685603 5.87270656 75.10702219 4.30859375 75.09765625 C3.36435547 75.09443359 2.42011719 75.09121094 1.44726562 75.08789062 C0.45404297 75.07951172 -0.53917969 75.07113281 -1.5625 75.0625 C-2.55958984 75.05798828 -3.55667969 75.05347656 -4.58398438 75.04882812 C-7.05604849 75.03700007 -9.52799518 75.02051849 -12 75 C-12.88801234 71.42374654 -13.00799486 68.80797918 -12.2578125 65.20703125 C-12.07863281 64.32982422 -11.89945313 63.45261719 -11.71484375 62.54882812 C-11.52019531 61.64583984 -11.32554687 60.74285156 -11.125 59.8125 C-10.93808594 58.89791016 -10.75117187 57.98332031 -10.55859375 57.04101562 C-9.15970686 50.31941372 -9.15970686 50.31941372 -8 48 C-16.91 48 -25.82 48 -35 48 C-34 36 -34 36 -32 27 C-23.09 26.67 -14.18 26.34 -5 26 C-4.10205457 21.18495013 -4.10205457 21.18495013 -3.20556641 16.36962891 C-2.18317708 10.90231383 -1.091089 5.455445 0 0 Z " fill="#BA21AF" transform="translate(599,108)"/>
<path d="M0 0 C7.62357152 -1.83944056 15.59339041 -3.12844057 23 0 C27.22336588 4.01223475 30.128096 8.52442498 33 13.5625 C33.370112 14.20231812 33.740224 14.84213623 34.12155151 15.50134277 C40.89096083 27.47782925 40.89096083 27.47782925 39 35 C37.74072266 37.64306641 37.74072266 37.64306641 36.1640625 40.1015625 C35.59429687 41.00390625 35.02453125 41.90625 34.4375 42.8359375 C33.839375 43.75632813 33.24125 44.67671875 32.625 45.625 C31.45051568 47.47135089 30.27603635 49.31770495 29.1015625 51.1640625 C28.57900879 51.97311035 28.05645508 52.7821582 27.51806641 53.61572266 C25.93124262 56.01126584 25.93124262 56.01126584 24.63891602 58.77172852 C23 61 23 61 20.5480957 61.56762695 C19.12630005 61.52835083 19.12630005 61.52835083 17.67578125 61.48828125 C16.13374023 61.46411133 16.13374023 61.46411133 14.56054688 61.43945312 C12.95276367 61.37661133 12.95276367 61.37661133 11.3125 61.3125 C10.22904297 61.28994141 9.14558594 61.26738281 8.02929688 61.24414062 C5.35148095 61.1851579 2.67642973 61.10290307 0 61 C1.34733199 56.21267143 3.34068265 52.76762871 6.25 48.75 C7.05518206 47.60933904 7.8585535 46.46739793 8.66015625 45.32421875 C9.05477051 44.76395996 9.44938477 44.20370117 9.85595703 43.62646484 C11.4989038 41.29071765 13.12253009 38.95151874 14.6875 36.5625 C15.18636719 35.82128906 15.68523437 35.08007812 16.19921875 34.31640625 C17.38449695 30.88777225 16.47834275 29.28032269 15 26 C13.49755636 23.30641704 11.86197211 20.71438987 10.1875 18.125 C9.32682292 16.7734375 8.46614583 15.421875 7.60546875 14.0703125 C6.26301576 11.9698343 4.91704432 9.87203375 3.56103516 7.78027344 C3.10390137 7.06645508 2.64676758 6.35263672 2.17578125 5.6171875 C1.75852783 4.97120605 1.34127441 4.32522461 0.91137695 3.65966797 C0 2 0 2 0 0 Z " fill="#FED62D" transform="translate(462,29)"/>
<path d="M0 0 C7.30690642 -1.85552807 14.90879249 -3.09423907 22 0 C26.16857953 4.02897989 29.0692133 8.55271035 31.9375 13.5625 C32.30938446 14.20231812 32.68126892 14.84213623 33.06442261 15.50134277 C39.88892824 27.50522023 39.88892824 27.50522023 38 35 C36.74072266 37.64306641 36.74072266 37.64306641 35.1640625 40.1015625 C34.59429687 41.00390625 34.02453125 41.90625 33.4375 42.8359375 C32.839375 43.75632813 32.24125 44.67671875 31.625 45.625 C30.45051568 47.47135089 29.27603635 49.31770495 28.1015625 51.1640625 C27.57900879 51.97311035 27.05645508 52.7821582 26.51806641 53.61572266 C24.93237663 56.01294346 24.93237663 56.01294346 23.62524414 58.77172852 C22 61 22 61 19.63989258 61.56762695 C18.73392334 61.54144287 17.8279541 61.51525879 16.89453125 61.48828125 C15.42016602 61.46411133 15.42016602 61.46411133 13.91601562 61.43945312 C12.89185547 61.39755859 11.86769531 61.35566406 10.8125 61.3125 C9.77673828 61.28994141 8.74097656 61.26738281 7.67382812 61.24414062 C5.11443596 61.18516846 2.55794049 61.10292567 0 61 C0.65982377 57.53002048 2.04685184 54.98236239 3.87109375 51.97265625 C4.44537109 51.01552734 5.01964844 50.05839844 5.61132812 49.07226562 C6.21396484 48.07904297 6.81660156 47.08582031 7.4375 46.0625 C8.62701125 44.09705354 9.81332674 42.12966862 10.99609375 40.16015625 C11.52388428 39.29011963 12.0516748 38.42008301 12.59545898 37.52368164 C13.29070679 36.27445923 13.29070679 36.27445923 14 35 C14.46011475 34.19828369 14.92022949 33.39656738 15.39428711 32.57055664 C16.29246274 29.88017874 16.29246274 29.88017874 14.75830078 27.00146484 C14.07751465 25.91559082 13.39672852 24.8297168 12.6953125 23.7109375 C12.33734589 23.12583405 11.97937927 22.54073059 11.61056519 21.93789673 C10.4656346 20.07247712 9.29693504 18.2235508 8.125 16.375 C6.96441256 14.51709895 5.80916714 12.65619501 4.66085815 10.79067993 C3.61788131 9.10052333 2.55953485 7.41988014 1.50048828 5.73974609 C0 3 0 3 0 0 Z " fill="#FED62E" transform="translate(397,29)"/>
<path d="M0 0 C7.30690642 -1.85552807 14.90879249 -3.09423907 22 0 C26.16857953 4.02897989 29.0692133 8.55271035 31.9375 13.5625 C32.30938446 14.20231812 32.68126892 14.84213623 33.06442261 15.50134277 C39.85770266 27.45029639 39.85770266 27.45029639 38 35 C36.18076 39.6934303 33.81341781 44.07573432 31.3125 48.4375 C30.97162354 49.03560486 30.63074707 49.63370972 30.27954102 50.24993896 C27.37722085 55.16337227 24.54619702 59.95036069 19.08740234 62.20068359 C12.62834477 63.25837369 6.33812381 62.48111577 0 61 C1.27574509 56.73078357 2.88780046 53.26776783 5.29296875 49.5234375 C5.92267578 48.523125 6.55238281 47.5228125 7.20117188 46.4921875 C8.53231895 44.40318972 9.86831301 42.31727312 11.20898438 40.234375 C12.14774414 38.73777344 12.14774414 38.73777344 13.10546875 37.2109375 C13.68449951 36.30649902 14.26353027 35.40206055 14.86010742 34.47021484 C16.17197058 32.14786061 16.17197058 32.14786061 15.86035156 29.99291992 C14.7857924 27.50380912 13.51991789 25.23091044 12.12890625 22.90234375 C11.26749023 21.45311523 11.26749023 21.45311523 10.38867188 19.97460938 C9.78603516 18.97236328 9.18339844 17.97011719 8.5625 16.9375 C7.96373047 15.93138672 7.36496094 14.92527344 6.74804688 13.88867188 C4.5562435 10.21439455 2.37351545 6.56027317 0 3 C0 2.01 0 1.02 0 0 Z " fill="#FED62D" transform="translate(490,29)"/>
<path d="M0 0 C7.30690642 -1.85552807 14.90879249 -3.09423907 22 0 C26.16857953 4.02897989 29.0692133 8.55271035 31.9375 13.5625 C32.30938446 14.20231812 32.68126892 14.84213623 33.06442261 15.50134277 C39.85770266 27.45029639 39.85770266 27.45029639 38 35 C36.18076 39.6934303 33.81341781 44.07573432 31.3125 48.4375 C30.97162354 49.03560486 30.63074707 49.63370972 30.27954102 50.24993896 C27.37722085 55.16337227 24.54619702 59.95036069 19.08740234 62.20068359 C12.62834477 63.25837369 6.33812381 62.48111577 0 61 C1.27574509 56.73078357 2.88780046 53.26776783 5.29296875 49.5234375 C5.92267578 48.523125 6.55238281 47.5228125 7.20117188 46.4921875 C8.53231895 44.40318972 9.86831301 42.31727312 11.20898438 40.234375 C12.14774414 38.73777344 12.14774414 38.73777344 13.10546875 37.2109375 C13.68449951 36.30649902 14.26353027 35.40206055 14.86010742 34.47021484 C16.17197058 32.14786061 16.17197058 32.14786061 15.86035156 29.99291992 C14.7857924 27.50380912 13.51991789 25.23091044 12.12890625 22.90234375 C11.26749023 21.45311523 11.26749023 21.45311523 10.38867188 19.97460938 C9.78603516 18.97236328 9.18339844 17.97011719 8.5625 16.9375 C7.96373047 15.93138672 7.36496094 14.92527344 6.74804688 13.88867188 C4.5562435 10.21439455 2.37351545 6.56027317 0 3 C0 2.01 0 1.02 0 0 Z " fill="#FED62D" transform="translate(424,29)"/>
<path d="M0 0 C10 0 10 0 12.6875 1.375 C16.17956646 5.33896734 19.05619951 9.61316005 22 14 C22.33 9.71 22.66 5.42 23 1 C27.455 0.505 27.455 0.505 32 0 C32 0.66 32 1.32 32 2 C32.99 2 33.98 2 35 2 C35 12.23 35 22.46 35 33 C24 33 24 33 21 31 C21 30.34 21 29.68 21 29 C20.34 29 19.68 29 19 29 C16.47121327 25.79610731 14.28510237 22.38533684 12 19 C12 23.62 12 28.24 12 33 C10.39125 33.020625 8.7825 33.04125 7.125 33.0625 C5.76761719 33.07990234 5.76761719 33.07990234 4.3828125 33.09765625 C2 33 2 33 0 32 C0 21.44 0 10.88 0 0 Z " fill="#9305B6" transform="translate(344,30)"/>
<path d="M0 0 C3.35399849 -0.0878954 6.7076964 -0.14068879 10.0625 -0.1875 C11.00544922 -0.21263672 11.94839844 -0.23777344 12.91992188 -0.26367188 C18.79727274 -0.3251076 22.78449716 0.26612204 28 3 C28.9075 3.4125 29.815 3.825 30.75 4.25 C33.95766985 6.74485432 34.78352683 9.15850579 36 13 C36.59667138 18.46948767 35.75023152 23.23639145 33 28 C27.08218332 33.22969846 19.98714902 34.36158557 12.3515625 33.91796875 C11.61679687 33.86253906 10.88203125 33.80710938 10.125 33.75 C9.36703125 33.71003906 8.6090625 33.67007813 7.828125 33.62890625 C2.26248512 33.26248512 2.26248512 33.26248512 0 31 C-0.22705078 27.92724609 -0.22705078 27.92724609 -0.1953125 24.0234375 C-0.1924826 23.33819 -0.18965271 22.6529425 -0.18673706 21.94692993 C-0.17553281 19.75610973 -0.15042859 17.56569684 -0.125 15.375 C-0.11497048 13.8906309 -0.10584458 12.4062554 -0.09765625 10.921875 C-0.07559294 7.28111739 -0.04106176 3.64059844 0 0 Z M12 8 C12 13.61 12 19.22 12 25 C17.5919591 25.50103627 17.5919591 25.50103627 20.375 23.625 C22.81875537 19.67739518 22.8392962 15.52917501 22 11 C21.01510816 9.05628321 21.01510816 9.05628321 19 8 C16.69 8 14.38 8 12 8 Z " fill="#BA066D" transform="translate(293,30)"/>
<path d="M0 0 C37.29 0 74.58 0 113 0 C113 0.66 113 1.32 113 2 C113.99 2 114.98 2 116 2 C115.67 3.32 115.34 4.64 115 6 C100.31845815 6.04669839 85.63692612 6.08197823 70.95532513 6.10362434 C64.13856716 6.11394167 57.32185532 6.12801068 50.50512695 6.15087891 C43.93048516 6.1729245 37.3558788 6.18455858 30.7811985 6.18975449 C28.26890113 6.19345881 25.75660648 6.20069211 23.24432945 6.21146011 C19.73403559 6.22591164 16.22394172 6.22798059 12.71362305 6.22705078 C11.66777542 6.23424133 10.6219278 6.24143188 9.54438782 6.24884033 C8.58946442 6.246091 7.63454102 6.24334167 6.65068054 6.24050903 C5.82014506 6.24235262 4.98960958 6.24419621 4.13390636 6.24609566 C2 6 2 6 -1 4 C-0.67 2.68 -0.34 1.36 0 0 Z " fill="#CE0653" transform="translate(263,66)"/>
<path d="M0 0 C3.04668428 1.40527592 3.76031678 3.43800211 5.25390625 6.390625 C5.76308594 7.37933594 6.27226562 8.36804688 6.796875 9.38671875 C7.21582031 10.23363281 7.63476562 11.08054687 8.06640625 11.953125 C8.56140625 12.943125 8.56140625 12.943125 9.06640625 13.953125 C6.89132207 18.64672769 6.89132207 18.64672769 3.87890625 19.765625 C3.28078125 19.8275 2.68265625 19.889375 2.06640625 19.953125 C2.06640625 20.943125 2.06640625 21.933125 2.06640625 22.953125 C1.07640625 23.283125 0.08640625 23.613125 -0.93359375 23.953125 C-1.26359375 24.943125 -1.59359375 25.933125 -1.93359375 26.953125 C-3.04734375 27.076875 -4.16109375 27.200625 -5.30859375 27.328125 C-8.96463052 27.5997063 -8.96463052 27.5997063 -10.93359375 29.953125 C-13.93359375 26.328125 -13.93359375 26.328125 -13.93359375 22.953125 C-14.59359375 22.953125 -15.25359375 22.953125 -15.93359375 22.953125 C-17.28768695 20.96712163 -18.61816999 18.96494957 -19.93359375 16.953125 C-21.23041749 15.58425549 -22.55182509 14.2361959 -23.93359375 12.953125 C-21.78616244 12.39638355 -19.69109315 11.91581722 -17.49609375 11.578125 C-13.5724297 10.62113377 -10.77154225 8.7910735 -7.93359375 5.953125 C-7.27359375 5.293125 -6.61359375 4.633125 -5.93359375 3.953125 C-5.31484375 3.23125 -4.69609375 2.509375 -4.05859375 1.765625 C-1.93359375 -0.046875 -1.93359375 -0.046875 0 0 Z " fill="#306CFE" transform="translate(234.93359375,57.046875)"/>
<path d="M0 0 C3.3 0 6.6 0 10 0 C10 0.66 10 1.32 10 2 C10.99 2 11.98 2 13 2 C13 12.23 13 22.46 13 33 C9.37 33 5.74 33 2 33 C0 31 0 31 -0.22705078 27.92724609 C-0.21657715 26.63898926 -0.20610352 25.35073242 -0.1953125 24.0234375 C-0.1924826 23.33819 -0.18965271 22.6529425 -0.18673706 21.94692993 C-0.17553281 19.75610973 -0.15042859 17.56569684 -0.125 15.375 C-0.11497048 13.8906309 -0.10584458 12.4062554 -0.09765625 10.921875 C-0.07559294 7.28111739 -0.04106176 3.64059844 0 0 Z " fill="#DF0634" transform="translate(262,30)"/>
<path d="M0 0 C1.98 0 3.96 0 6 0 C6 1.98 6 3.96 6 6 C7.01320312 6.03867188 7.01320312 6.03867188 8.046875 6.078125 C15.43088772 6.5476287 15.43088772 6.5476287 18.4375 8.9375 C18.953125 9.618125 19.46875 10.29875 20 11 C20.99 11.66 21.98 12.32 23 13 C22.05016642 14.50539661 21.08988109 16.00420347 20.125 17.5 C19.59132812 18.3353125 19.05765625 19.170625 18.5078125 20.03125 C18.01023438 20.6809375 17.51265625 21.330625 17 22 C16.34 22 15.68 22 15 22 C14.67 22.66 14.34 23.32 14 24 C14 23.34 14 22.68 14 22 C11.69 21.67 9.38 21.34 7 21 C6.67 19.35 6.34 17.7 6 16 C2.37 16 -1.26 16 -5 16 C-5 15.01 -5 14.02 -5 13 C-6.32 12.67 -7.64 12.34 -9 12 C-6.87820572 7.97975821 -4.53754951 5.79280225 -1 3 C-0.67 2.01 -0.34 1.02 0 0 Z " fill="#3E63FE" transform="translate(215,188)"/>
<path d="M0 0 C-0.33 1.32 -0.66 2.64 -1 4 C-38.29 4 -75.58 4 -114 4 C-114 3.01 -114 2.02 -114 1 C-99.57921081 0.86945191 -85.15842022 0.73905992 -70.73762798 0.60884857 C-64.04196293 0.54838604 -57.3462983 0.48787643 -50.65063477 0.42724609 C-44.1927024 0.36877353 -37.73476887 0.31043181 -31.27683449 0.25218201 C-28.80920176 0.22990102 -26.34156947 0.20757236 -23.87393761 0.18519592 C-20.42596929 0.15393784 -16.97799949 0.12284711 -13.5300293 0.09179688 C-12.50288315 0.08244614 -11.475737 0.0730954 -10.41746521 0.0634613 C-9.47937012 0.05504715 -8.54127502 0.046633 -7.57475281 0.03796387 C-6.35107262 0.02690235 -6.35107262 0.02690235 -5.10267162 0.01561737 C-3.40182003 0.00298448 -1.70089851 0 0 0 Z " fill="#461120" transform="translate(379,68)"/>
<path d="M0 0 C1.32 1.65 2.64 3.3 4 5 C2.92598892 7.91517292 2.22189824 9.77810176 0 12 C-0.99 12 -1.98 12 -3 12 C-3 12.99 -3 13.98 -3 15 C-3.99 15.33 -4.98 15.66 -6 16 C-6.33 16.99 -6.66 17.98 -7 19 C-8.11375 19.12375 -9.2275 19.2475 -10.375 19.375 C-14.03103677 19.6465813 -14.03103677 19.6465813 -16 22 C-18.97992472 18.66248432 -18.97992472 18.66248432 -19.0625 15.9375 C-17.45343749 13.00332718 -14.98824044 12.40954738 -12 11 C-9.89976358 9.42600792 -7.9720165 7.73725263 -6 6 C-6 6.99 -6 7.98 -6 9 C-3.43004926 7.71502463 -3.09565537 6.50087627 -1.875 3.9375 C-1.52179688 3.20402344 -1.16859375 2.47054687 -0.8046875 1.71484375 C-0.53914063 1.14894531 -0.27359375 0.58304687 0 0 Z " fill="#0000FF" transform="translate(240,65)"/>
<path d="M0 0 C2.3125 0.5625 2.3125 0.5625 5 2 C8.06878871 7.39683532 8.90064027 12.00716146 7.53125 18.078125 C6.3627737 21.83394168 5.31098789 23.72517349 2.3125 26.375 C-4.58752994 29.75992035 -10.49657258 30.27521035 -18 29.625 C-18.77472656 29.56828125 -19.54945313 29.5115625 -20.34765625 29.453125 C-22.23265095 29.31349576 -24.11648861 29.15838619 -26 29 C-25.67 28.34 -25.34 27.68 -25 27 C-23.865625 26.97421875 -22.73125 26.9484375 -21.5625 26.921875 C-10.14316648 26.72223435 -10.14316648 26.72223435 0 22 C2.74838803 18.27554893 3.4102067 15.6003425 3.375 11 C3.38273437 9.989375 3.39046875 8.97875 3.3984375 7.9375 C2.95083844 4.63755402 1.88496045 2.71274731 0 0 Z " fill="#1D141E" transform="translate(321,34)"/>
<path d="M0 0 C6.45954549 -0.0253794 12.9190781 -0.04287928 19.37866211 -0.05493164 C21.5756071 -0.05995675 23.77254876 -0.06677788 25.96948242 -0.07543945 C29.12940292 -0.08758475 32.28927915 -0.09324659 35.44921875 -0.09765625 C36.42960617 -0.10281754 37.40999359 -0.10797882 38.42008972 -0.11329651 C39.34066666 -0.11337204 40.26124359 -0.11344757 41.2097168 -0.11352539 C42.0157988 -0.115746 42.8218808 -0.11796661 43.65238953 -0.12025452 C46.18086474 0.00926466 48.53226148 0.44726175 51 1 C51 1.66 51 2.32 51 3 C33.84 3.33 16.68 3.66 -1 4 C-0.67 2.68 -0.34 1.36 0 0 Z " fill="#FD0801" transform="translate(263,66)"/>
<path d="M0 0 C1.98 0 3.96 0 6 0 C6 1.98 6 3.96 6 6 C7.01320312 6.03867188 7.01320312 6.03867188 8.046875 6.078125 C15.43088772 6.5476287 15.43088772 6.5476287 18.4375 8.9375 C18.953125 9.618125 19.46875 10.29875 20 11 C20.99 11.66 21.98 12.32 23 13 C22.01 14.65 21.02 16.3 20 18 C19.67 17.01 19.34 16.02 19 15 C16.71108972 13.62665383 14.54247553 12.84749184 12 12 C12 11.34 12 10.68 12 10 C10.02 10 8.04 10 6 10 C6 9.01 6 8.02 6 7 C5.01 7 4.02 7 3 7 C3 7.66 3 8.32 3 9 C0.625 9.1875 0.625 9.1875 -2 9 C-2.66 8.01 -3.32 7.02 -4 6 C-3.525625 5.566875 -3.05125 5.13375 -2.5625 4.6875 C-0.76313043 2.97690387 -0.76313043 2.97690387 0 0 Z " fill="#0000FF" transform="translate(215,188)"/>
<path d="M0 0 C1.32 0 2.64 0 4 0 C4 10.23 4 20.46 4 31 C0.37 31 -3.26 31 -7 31 C-6.67 30.34 -6.34 29.68 -6 29 C-4.02 29 -2.04 29 0 29 C0 19.43 0 9.86 0 0 Z " fill="#1D151E" transform="translate(271,32)"/>
<path d="M0 0 C1.32 0 2.64 0 4 0 C4 10.23 4 20.46 4 31 C0.37 31 -3.26 31 -7 31 C-7.33 30.34 -7.66 29.68 -8 29 C-5.36 29 -2.72 29 0 29 C0 19.43 0 9.86 0 0 Z " fill="#1A1426" transform="translate(375,32)"/>
<path d="M0 0 C2.12943217 1.68580047 2.92572398 2.6073982 3.4375 5.3125 C2.84507896 8.9516578 1.26556023 11.13473265 -1 14 C-1.66 14 -2.32 14 -3 14 C-3.33 13.34 -3.66 12.68 -4 12 C-4.886875 12.94875 -5.77375 13.8975 -6.6875 14.875 C-9.27721336 17.46471336 -11.39945294 19.02687917 -15 20 C-15.99 20 -16.98 20 -18 20 C-18.33 19.01 -18.66 18.02 -19 17 C-18.67 16.67 -18.34 16.34 -18 16 C-17.09765625 16.07476562 -16.1953125 16.14953125 -15.265625 16.2265625 C-10.94179743 15.92658403 -9.71663798 14.4599395 -6.75 11.375 C-5.89921875 10.51648438 -5.0484375 9.65796875 -4.171875 8.7734375 C-1.91191667 5.88751949 -0.92921148 3.52067903 0 0 Z " fill="#0075FF" transform="translate(237,60)"/>
<path d="M0 0 C4.56244637 -0.05813173 9.12479724 -0.09364122 13.6875 -0.125 C14.98107422 -0.14175781 16.27464844 -0.15851563 17.60742188 -0.17578125 C18.85458984 -0.18222656 20.10175781 -0.18867187 21.38671875 -0.1953125 C23.10701294 -0.21102295 23.10701294 -0.21102295 24.86206055 -0.22705078 C27.99191655 -0.00058489 30.18079905 0.66543968 33 2 C33 2.33 33 2.66 33 3 C23.76 3 14.52 3 5 3 C5 2.34 5 1.68 5 1 C3.35 1 1.7 1 0 1 C0 0.67 0 0.34 0 0 Z " fill="#D9073D" transform="translate(309,66)"/>
<path d="M0 0 C2.1640625 0.2421875 2.1640625 0.2421875 4.625 0.875 C5.44226563 1.07867187 6.25953125 1.28234375 7.1015625 1.4921875 C8.04128906 1.74355469 8.04128906 1.74355469 9 2 C9 1.34 9 0.68 9 0 C9.99 0 10.98 0 12 0 C12 0.99 12 1.98 12 3 C13.98 3 15.96 3 18 3 C18 3.66 18 4.32 18 5 C18.598125 5.12375 19.19625 5.2475 19.8125 5.375 C22 6 22 6 25 8 C24.67 9.32 24.34 10.64 24 12 C24 11.01 24 10.02 24 9 C21.23735711 8.40267181 18.83967231 8 16 8 C14.57022269 7.58436706 13.15398804 7.12081396 11.75 6.625 C8.86982321 5.62891928 5.99976955 4.68782931 3.0625 3.875 C0 3 0 3 -2 2 C-1.34 1.34 -0.68 0.68 0 0 Z " fill="#007BFF" transform="translate(209,195)"/>
<path d="M0 0 C3.375 3.375 3.375 3.375 3.51171875 7.23046875 C3.54716797 8.03291016 3.58261719 8.83535156 3.61914062 9.66210938 C3.64169922 10.49548828 3.66425781 11.32886719 3.6875 12.1875 C3.73874023 13.4549707 3.73874023 13.4549707 3.79101562 14.74804688 C3.87341471 16.83156649 3.93838645 18.91576216 4 21 C0.7 21 -2.6 21 -6 21 C-6 20.34 -6 19.68 -6 19 C-4.02 19 -2.04 19 0 19 C0 12.73 0 6.46 0 0 Z " fill="#1A1421" transform="translate(352,42)"/>
<path d="M0 0 C2.64 0 5.28 0 8 0 C8.66 0.66 9.32 1.32 10 2 C7.69 2 5.38 2 3 2 C3 7.61 3 13.22 3 19 C2.01 19 1.02 19 0 19 C0 12.73 0 6.46 0 0 Z " fill="#1D1522" transform="translate(302,36)"/>
<path d="M0 0 C2.97 0.495 2.97 0.495 6 1 C6 1.99 6 2.98 6 4 C10.96911366 2.87302957 10.96911366 2.87302957 15 0 C17.125 0.375 17.125 0.375 19 1 C15.63467608 4.43692656 13.19654255 6.77306952 8.375 7.6875 C4.16156989 6.82920868 2.6266693 5.34303366 0 2 C0 1.34 0 0.68 0 0 Z " fill="#4F54FF" transform="translate(212,70)"/>
<path d="M0 0 C1.98 0.66 3.96 1.32 6 2 C3.89851796 5.98175544 1.63094642 8.35039045 -2 11 C-2.33 10.01 -2.66 9.02 -3 8 C-2.34 8 -1.68 8 -1 8 C-1.20625 7.05125 -1.4125 6.1025 -1.625 5.125 C-1.74875 4.09375 -1.8725 3.0625 -2 2 C-1.34 1.34 -0.68 0.68 0 0 Z " fill="#2453F2" transform="translate(222,211)"/>
<path d="M0 0 C1.89575251 -0.02721176 3.79161979 -0.04649136 5.6875 -0.0625 C6.74324219 -0.07410156 7.79898437 -0.08570312 8.88671875 -0.09765625 C11.72410262 -0.00865425 14.2438919 0.35060162 17 1 C17 1.66 17 2.32 17 3 C11.39 3 5.78 3 0 3 C0 2.01 0 1.02 0 0 Z " fill="#F20715" transform="translate(297,66)"/>
<path d="M0 0 C6.27 0 12.54 0 19 0 C19 0.99 19 1.98 19 3 C15.04 3 11.08 3 7 3 C7 2.34 7 1.68 7 1 C4.69 1 2.38 1 0 1 C0 0.67 0 0.34 0 0 Z " fill="#BC0772" transform="translate(357,66)"/>
<path d="M0 0 C0.66 0 1.32 0 2 0 C2 0.66 2 1.32 2 2 C1.34 2 0.68 2 0 2 C0 2.66 0 3.32 0 4 C-4.95 5.485 -4.95 5.485 -10 7 C-10.66 5.68 -11.32 4.36 -12 3 C-10.82630859 2.80083984 -10.82630859 2.80083984 -9.62890625 2.59765625 C-8.61699219 2.42105469 -7.60507813 2.24445313 -6.5625 2.0625 C-5.55316406 1.88847656 -4.54382813 1.71445312 -3.50390625 1.53515625 C-1.0712562 1.25248903 -1.0712562 1.25248903 0 0 Z " fill="#276BEA" transform="translate(220,62)"/>
<path d="M0 0 C3.78557181 1.48748738 5.41567193 3.55349866 7.6875 6.875 C8.28949219 7.73867188 8.89148438 8.60234375 9.51171875 9.4921875 C10.84851121 11.74473543 11.55417894 13.44395924 12 16 C7.49486569 11.76790414 3.485708 7.11304141 0 2 C0 1.34 0 0.68 0 0 Z " fill="#191226" transform="translate(355,32)"/>
<path d="M0 0 C4.95 0 9.9 0 15 0 C15.33 0.99 15.66 1.98 16 3 C12.37 3 8.74 3 5 3 C5 2.34 5 1.68 5 1 C3.35 1 1.7 1 0 1 C0 0.67 0 0.34 0 0 Z " fill="#E40729" transform="translate(309,66)"/>
<path d="M0 0 C1.45903258 0.30921884 2.91720722 0.62248799 4.375 0.9375 C5.18710938 1.11152344 5.99921875 1.28554687 6.8359375 1.46484375 C9 2 9 2 11 3 C11 3.99 11 4.98 11 6 C6.87248551 5.39301257 3.6678852 3.96189209 0 2 C0 1.34 0 0.68 0 0 Z " fill="#2C66E0" transform="translate(218,207)"/>
<path d="M0 0 C2.97 0 5.94 0 9 0 C9.33 0.99 9.66 1.98 10 3 C10.99 3.33 11.98 3.66 13 4 C11.1875 4.625 11.1875 4.625 9 5 C8.01 4.34 7.02 3.68 6 3 C4.0103005 2.60986284 2.00980131 2.26797351 0 2 C0 1.34 0 0.68 0 0 Z " fill="#295FFA" transform="translate(212,203)"/>
<path d="M0 0 C3.465 1.485 3.465 1.485 7 3 C7 4.32 7 5.64 7 7 C3.9168649 5.80100302 0.93720508 4.52299523 -2 3 C-1.34 2.01 -0.68 1.02 0 0 Z " fill="#5757FF" transform="translate(226,201)"/>
<path d="M0 0 C5 2 5 2 10 4 C10 4.33 10 4.66 10 5 C7.69 5.33 5.38 5.66 3 6 C3 5.01 3 4.02 3 3 C1.68 2.67 0.36 2.34 -1 2 C-0.67 1.34 -0.34 0.68 0 0 Z " fill="#3874FE" transform="translate(207,198)"/>
<path d="M0 0 C4.29 0.33 8.58 0.66 13 1 C13 1.66 13 2.32 13 3 C10.03 3 7.06 3 4 3 C4 2.34 4 1.68 4 1 C2.68 0.67 1.36 0.34 0 0 Z " fill="#C40662" transform="translate(351,66)"/>
<path d="M0 0 C0.66 0 1.32 0 2 0 C1.6875 2.875 1.6875 2.875 1 6 C0.01 6.66 -0.98 7.32 -2 8 C-1.125 1.125 -1.125 1.125 0 0 Z " fill="#4E62FF" transform="translate(235,60)"/>
<path d="M0 0 C0.5625 1.9375 0.5625 1.9375 1 4 C0 5 0 5 -3.0625 5.0625 C-4.5165625 5.0315625 -4.5165625 5.0315625 -6 5 C-5.195625 4.360625 -4.39125 3.72125 -3.5625 3.0625 C-1.7249496 1.59396498 -1.7249496 1.59396498 0 0 Z " fill="#1D43F7" transform="translate(200,202)"/>
</svg>
