<?xml version="1.0" encoding="UTF-8"?>
<!DOCTYPE svg PUBLIC "-//W3C//DTD SVG 1.1//EN" "http://www.w3.org/Graphics/SVG/1.1/DTD/svg11.dtd">
<svg xmlns="http://www.w3.org/2000/svg" version="1.1" width="293px" height="108px" style="shape-rendering:geometricPrecision; text-rendering:geometricPrecision; image-rendering:optimizeQuality; fill-rule:evenodd; clip-rule:evenodd" xmlns:xlink="http://www.w3.org/1999/xlink">
<g><path style="opacity:0.838" fill="#130200" d="M 14.5,16.5 C 32.5031,16.3334 50.5031,16.5001 68.5,17C 75.5846,17.5837 82.0846,19.7504 88,23.5C 88.2362,21.236 88.7362,19.0693 89.5,17C 98.1667,16.3333 106.833,16.3333 115.5,17C 116,17.5 116.5,18 117,18.5C 117.5,37.1637 117.667,55.8304 117.5,74.5C 121.833,74.5 126.167,74.5 130.5,74.5C 130.174,55.2571 130.507,36.0904 131.5,17C 147.167,16.3333 162.833,16.3333 178.5,17C 181.729,21.9579 184.562,27.1245 187,32.5C 189.79,27.0828 192.957,21.9161 196.5,17C 205.833,16.3333 215.167,16.3333 224.5,17C 225.749,19.2096 225.582,21.3763 224,23.5C 217.151,34.3436 210.318,45.1769 203.5,56C 211.202,68.5677 219.035,81.0677 227,93.5C 227.72,95.1124 227.554,96.6124 226.5,98C 216.833,98.6667 207.167,98.6667 197.5,98C 194,91.8333 190.5,85.6667 187,79.5C 183.627,85.7479 180.127,91.9145 176.5,98C 147.5,98.6667 118.5,98.6667 89.5,98C 88.8971,96.1746 88.2304,94.3413 87.5,92.5C 82.1896,95.4114 76.5229,97.2448 70.5,98C 51.5932,98.8255 32.7599,98.6588 14,97.5C 13.1763,70.4279 13.343,43.4279 14.5,16.5 Z M 158.5,37.5 C 162.607,43.5332 166.607,49.6999 170.5,56C 166.683,62.4899 162.849,68.9899 159,75.5C 158.5,62.8377 158.333,50.1711 158.5,37.5 Z M 62.5,39.5 C 68.3624,39.189 72.1957,41.8557 74,47.5C 76.2015,55.281 75.8682,62.9477 73,70.5C 70.3829,73.9852 66.8829,75.6519 62.5,75.5C 62.5,63.5 62.5,51.5 62.5,39.5 Z"/></g>
<g><path style="opacity:1" fill="#e20913" d="M 16.5,19.5 C 24.1667,19.5 31.8333,19.5 39.5,19.5C 39.5,44.8333 39.5,70.1667 39.5,95.5C 31.8333,95.5 24.1667,95.5 16.5,95.5C 16.5,70.1667 16.5,44.8333 16.5,19.5 Z"/></g>
<g><path style="opacity:1" fill="#e50914" d="M 41.5,19.5 C 53.6127,18.964 65.6127,19.7973 77.5,22C 94.5108,27.1813 102.844,38.6813 102.5,56.5C 103.413,76.1852 94.4127,88.6852 75.5,94C 64.2061,95.2934 52.8728,95.7934 41.5,95.5C 41.5,70.1667 41.5,44.8333 41.5,19.5 Z M 62.5,39.5 C 62.5,51.5 62.5,63.5 62.5,75.5C 66.8829,75.6519 70.3829,73.9852 73,70.5C 75.8682,62.9477 76.2015,55.281 74,47.5C 72.1957,41.8557 68.3624,39.189 62.5,39.5 Z"/></g>
<g><path style="opacity:1" fill="#e60914" d="M 113.5,19.5 C 113.5,39.1667 113.5,58.8333 113.5,78.5C 119.5,78.5 125.5,78.5 131.5,78.5C 132.489,83.9753 132.822,89.642 132.5,95.5C 118.833,95.5 105.167,95.5 91.5,95.5C 91.1924,93.076 91.5258,90.7427 92.5,88.5C 96.0348,85.7642 98.8682,82.4309 101,78.5C 106.01,66.0564 106.677,53.3897 103,40.5C 100.416,34.9233 96.749,30.2566 92,26.5C 91.5034,24.1902 91.3367,21.8568 91.5,19.5C 98.8333,19.5 106.167,19.5 113.5,19.5 Z"/></g>
<g><path style="opacity:1" fill="#80040a" d="M 113.5,19.5 C 114.497,38.6595 114.83,57.9928 114.5,77.5C 120.358,77.1778 126.025,77.5111 131.5,78.5C 125.5,78.5 119.5,78.5 113.5,78.5C 113.5,58.8333 113.5,39.1667 113.5,19.5 Z"/></g>
<g><path style="opacity:1" fill="#e70914" d="M 133.5,19.5 C 140.833,19.5 148.167,19.5 155.5,19.5C 155.5,44.8333 155.5,70.1667 155.5,95.5C 148.5,95.5 141.5,95.5 134.5,95.5C 133.722,70.1745 133.389,44.8411 133.5,19.5 Z"/></g>
<g><path style="opacity:1" fill="#e50914" d="M 158.5,19.5 C 164.509,19.3338 170.509,19.5005 176.5,20C 180.382,26.261 183.882,32.761 187,39.5C 190.627,33.0796 194.127,26.5796 197.5,20C 205.833,19.3333 214.167,19.3333 222.5,20C 215.083,32.1695 207.416,44.1695 199.5,56C 207.833,69 216.167,82 224.5,95C 216.167,95.6667 207.833,95.6667 199.5,95C 195.46,87.7514 191.293,80.5847 187,73.5C 183.212,80.9125 179.045,88.0791 174.5,95C 169.177,95.4994 163.844,95.666 158.5,95.5C 158.334,90.4889 158.501,85.4889 159,80.5C 164.042,72.2489 169.208,64.0822 174.5,56C 169.208,47.9178 164.042,39.7511 159,31.5C 158.501,27.5138 158.334,23.5138 158.5,19.5 Z"/></g>
<g><path style="opacity:0.909" fill="#be2b30" d="M 248.5,24.5 C 254.5,24.5 260.5,24.5 266.5,24.5C 266.5,31.8333 266.5,39.1667 266.5,46.5C 273.167,46.5 279.833,46.5 286.5,46.5C 286.5,51.8333 286.5,57.1667 286.5,62.5C 279.833,62.5 273.167,62.5 266.5,62.5C 266.5,69.8333 266.5,77.1667 266.5,84.5C 260.5,84.5 254.5,84.5 248.5,84.5C 248.5,77.1667 248.5,69.8333 248.5,62.5C 241.833,62.5 235.167,62.5 228.5,62.5C 228.5,57.1667 228.5,51.8333 228.5,46.5C 235.167,46.5 241.833,46.5 248.5,46.5C 248.5,39.1667 248.5,31.8333 248.5,24.5 Z"/></g>
<g><path style="opacity:1" fill="#912124" d="M 263.5,27.5 C 259.5,27.5 255.5,27.5 251.5,27.5C 251.825,34.6866 251.491,41.6866 250.5,48.5C 250.5,41.1667 250.5,33.8333 250.5,26.5C 255.032,26.1818 259.366,26.5151 263.5,27.5 Z"/></g>
<g><path style="opacity:1" fill="#000000" d="M 263.5,27.5 C 263.5,34.5 263.5,41.5 263.5,48.5C 270.5,48.5 277.5,48.5 284.5,48.5C 284.5,52.5 284.5,56.5 284.5,60.5C 277.833,60.5 271.167,60.5 264.5,60.5C 263.509,67.3134 263.175,74.3134 263.5,81.5C 259.5,81.5 255.5,81.5 251.5,81.5C 251.5,74.5 251.5,67.5 251.5,60.5C 244.5,60.5 237.5,60.5 230.5,60.5C 230.5,56.5 230.5,52.5 230.5,48.5C 237.167,48.5 243.833,48.5 250.5,48.5C 251.491,41.6866 251.825,34.6866 251.5,27.5C 255.5,27.5 259.5,27.5 263.5,27.5 Z"/></g>
<g><path style="opacity:0.831" fill="#090100" d="M 59.5,37.5 C 69.2599,35.3586 75.4266,39.3586 78,49.5C 78.9113,56.6542 78.2446,63.6542 76,70.5C 73.6332,75.2673 69.7999,77.934 64.5,78.5C 63.1667,78.5 61.8333,78.5 60.5,78.5C 60.829,64.6565 60.4957,50.9898 59.5,37.5 Z M 62.5,39.5 C 62.5,51.5 62.5,63.5 62.5,75.5C 66.8829,75.6519 70.3829,73.9852 73,70.5C 75.8682,62.9477 76.2015,55.281 74,47.5C 72.1957,41.8557 68.3624,39.189 62.5,39.5 Z"/></g>
<g><path style="opacity:1" fill="#3f0205" d="M 59.5,37.5 C 60.4957,50.9898 60.829,64.6565 60.5,78.5C 61.8333,78.5 63.1667,78.5 64.5,78.5C 63.0813,79.4511 61.4147,79.7845 59.5,79.5C 59.5,65.5 59.5,51.5 59.5,37.5 Z"/></g>
<g><path style="opacity:1" fill="#5f1618" d="M 264.5,60.5 C 264.5,67.8333 264.5,75.1667 264.5,82.5C 259.968,82.8182 255.634,82.4849 251.5,81.5C 255.5,81.5 259.5,81.5 263.5,81.5C 263.175,74.3134 263.509,67.3134 264.5,60.5 Z"/></g>
</svg>
